<?xml version="1.0" encoding="UTF-8"?>
<svg id="Layer_1" data-name="Layer 1" xmlns="http://www.w3.org/2000/svg" viewBox="0 0 432 432">
  <defs>
    <style>
      .cls-1 {
        fill: #7b3040;
      }

      .cls-1, .cls-2 {
        stroke-width: 0px;
      }

      .cls-2 {
        fill: #fff;
      }
    </style>
  </defs>
  <g>
    <path class="cls-2" d="M130.67,420.48l3.6-34.95c.64-6.2,2.58-25.07,7.1-44.44,2.36-9.94,4.95-18.51,7.89-25.99-4.97-1.91-9.32-4.83-12.6-8.52-.45-.5-.9-1.02-1.34-1.56l-11.42,5.53-6.09-16.04h0c-2.23-5.79-32.95-86.59-33.26-87.41l-9.92-26.23,27.55,5.23c2.96.57,7.81,1.21,13.61,1.8,3.09-6.88,7.42-16.6,12.01-26.91,5.21-11.69,10.08-22.63,12.74-28.62l-14.11-2.44,17.83-19.65,2.91-3.21.76-.84c.8-.89,1.74-1.92,2.69-2.98,0-.43.02-1,.08-1.74l.17-1.29c1.22-7.62,6.19-14.85,13.07-19.13-.79-3.3-1.2-6.62-1.2-9.9,0-2.66.2-5.06.63-7.37,1.76-10.36,7.59-19.68,15.96-25.52,7.77-5.45,17.63-8.22,29.28-8.22,5.02,0,10.44.52,16.12,1.53,5.18.9,9.77,2.26,14.01,3.57l.66.19c4.32,1.28,8.05,2.39,12.71,3.19,4.71.82,9.31,1.24,13.7,1.24,14.23-.06,23.37-4.14,30.05-7.12l2.97-1.33,31.7-13.94-4.7,34.23c-.32,2.39-.78,4.74-1.38,7.02l10.24,1.8-12.24,20.61,5.3,2.45-12.97,15.82c.3.22.6.44.89.66,19.28,14.35,29.91,36.82,29.9,63.23v.89c.01,26.35-5.34,47.76-16.35,65.44-3.67,5.95-7.1,10.65-9.86,14.42-1.46,1.99-2.71,3.71-3.67,5.15-2.05,3.19-2.59,4.34-2.77,5.65.35.57.93,1.41,1.66,2.33,1.3,1.65,2.82,3.3,4.29,4.89.96,1.04,1.87,2.03,2.71,3l.67.77c5.75,6.66,21.01,24.37,32.15,49.17l13.45,29.92-31.74-8.26c-5.51-1.39-9.16-2.31-26.04-2.37h-.49c-5.88.03-19.64.08-44.03,7.91-31.99,10.34-67.82,29.77-106.46,57.74l-28.46,20.61Z"/>
    <path class="cls-1" d="M346.92,327.31s-11.71-4.72-37.91-5.08c-41.89,0-96.34,23.44-157.57,67.78l-8.13,5.88,1.02-9.96c3.7-35.97,10.5-62.91,20.29-80.32-.6.04-1.17.05-1.74.05-15.36,0-21.21-8.62-24.31-16.02-2.54,1.26-5.06,2.48-5.23,2.56l-4.4,2.14-1.74-4.58s-29.89-78.51-33.24-87.39l-2.84-7.49,7.88,1.5c4.9.94,13.21,1.91,22.66,2.68,6.13-13.54,29.92-67.08,30.18-67.68l1.71-3.83,3.94,1.45c.46.16,1.31.47,2.24.78,1.21-1.7,2.6-3.48,4.16-5.32l-16.51-2.85,5.47-6.04s5.31-5.85,8.43-9.32c-.32-1.02-.52-2.11-.52-3.28,0-.37,0-.8.04-1.19l.05-.39c.91-5.11,3.88-9.15,8.83-12.03,2.15-1.26,4.34-2.12,5.94-2.74.42-.17.84-.32,1.25-.44-1.73-3.71-3.99-8.99-3.99-15.76,0-1.92.15-3.69.46-5.39,1.35-7.68,5.27-14.01,11.34-18.26,8.61-6.04,21.07-7.66,37.03-4.84,4.57.8,8.63,2,12.73,3.27l.57.16c4.27,1.29,8.69,2.61,14.09,3.53,25.46,4.47,41.7-2.84,50.43-6.77l16.05-7.09-1.97,14.36c-.88,6.47-2.95,12.27-6.07,17.16l8.1,1.43-5.98,10.06c-1.5,2.55-3.22,4.85-5.15,6.87l4.27,1.99-8.59,10.48c-.96,1.22-2.06,2.62-3.41,4.03,23.21,11.79,36.46,33.26,36.46,61.59,0,32.4-8.36,49.71-14.66,59.92-3.37,5.47-6.5,9.76-9.25,13.54-5.51,7.55-8.83,12.1-8.83,18.94,0,3.74,6.25,10.49,9.27,13.74.91.97,1.68,1.82,2.25,2.48l.47.55c5.48,6.34,20.06,23.21,30.6,46.64l3.83,8.54Z"/>
    <path class="cls-2" d="M241.28,150.56c17.08,0,28.12,10.53,28.12,26.84,0,11.25-6.4,18.47-10.23,22.79l-.99,1.12c-.98,1.16-1.83,2-2.57,2.73-1.87,1.87-2.82,2.81-3.63,6.72l-.33,2.02c-.41,2.42-.88,5.31-1.2,7.77,61.26-15.85,69.18-40.14,69.18-59.6,0-34.73-27.42-56.31-71.55-56.31-53.73,0-74.22,28.24-81,37.67,4.06,3.76,20.56,15.71,43.2,16.75,3.79.19,7.38-1.47,11.56-3.37,5.29-2.4,11.28-5.13,19.43-5.13"/>
    <path class="cls-2" d="M148.72,280.2c2.74,8.8,5.51,12.73,13.91,12.73,5.96,0,11.37-1.83,17.63-3.95.99-.34,2-.67,3.03-1.02,7.15-2.38,48.14-20.97,55.53-25.16l.04-1.8c.44-18.26.9-37.13,3.55-52.14,1.1-6.23,4.62-9.99,8.03-13.63l.45-.48c.38-.41.78-.82,1.19-1.25,3.38-3.51,7.59-7.89,7.59-15.64,0-8.47-5.05-17.52-19.19-17.52-6.29,0-11.26,2.3-16.07,4.52-4.28,1.98-8.32,3.85-12.86,3.85-28.13,0-46.89-12.59-52.98-21.26-3.68,7.96-21.7,48.82-24.83,55.9,3.19-.02,8.13-.24,9.88-.32h.14c1.37-2.72,7.59-15.14,7.59-15.14l.28-.58.61.19c.24.07,24.05,7.51,27.64,8.59,8.03-2.22,21.07-10.48,32.59-17.76,2.18-1.38,4.3-2.72,6.3-3.96,7.15-4.54,15.35-9.38,22-9.38,9.43,0,13.83,7.65,13.83,12.83,0,6.78-2.83,9.76-6.26,12.7-3.09,2.7-26.48,21.62-38.98,31.63-7.03,5.71-8.46,8.12-11.28,13.49-4.13,7.73-8.47,13.74-12.22,18.77-4.34,5.83-10.23,10.89-17.99,15.46-3.41,2.03-14.85,8.17-19.13,10.33"/>
    <path class="cls-2" d="M111.99,211.76c4.71,12.37,20.95,55.14,24.28,63.88,3.94-2.04,14.97-7.8,24.68-13.1,8.25-4.5,15.14-9.41,28.67-31.85,5.14-8.51,6.54-10.55,15.45-17.63,7.18-5.68,17.86-13.96,26.05-20.29,5.92-4.59,10.53-8.16,11.54-8.99,1.78-1.47,2.57-2.93,2.57-4.75,0-2.61-1.93-5.25-5.62-5.25-3.22,0-6.2,1.94-8.6,3.5l-1.17.75c-3.75,2.27-8.19,5.11-12.97,8.15-6.63,4.23-14.14,9.01-21.16,13.18-19.11,11.39-50.5,13.09-67.51,13.09-7.75,0-13.04-.39-16.21-.7"/>
    <path class="cls-2" d="M171.79,113.17c.81.15,1.5.26,1.5.26,5.59.97,10.03-1.38,13.27-3.11l.6-.32c16.55-10.94,37.37-16.49,61.87-16.49,7.86,0,15.43.7,22.52,2.1,1.6.29,2.4.44,2.82.6,8.29,1.38,11.26-.8,14.54-4.73l-14.79-6.51,12.4-3.08c3.08-.76,5.89-2.42,8.37-4.95-4.82-.86-16.42-2.9-16.42-2.9l-2.26-.4,11.99-5.89c5.03-2.45,8.7-6.46,10.95-11.94-11.12,4.52-28.21,9.51-52.21,5.31-6.18-1.08-11.14-2.54-16.1-4.05l-.26-.08c-3.77-1.14-7.33-2.2-11.02-2.85-12.38-2.18-21.96-1.21-27.72,2.81-3.34,2.33-5.43,5.77-6.23,10.24-.17,1.18-.25,2.2-.25,3.19,0,4.45,1.71,8.04,3.21,11.21l.12.26c1.31,2.85,2.55,5.53,2.55,8.49,0,.58-.06,1.2-.16,1.77-.84,4.56-4.92,4.6-7.43,4.64-2.51.04-5.27.26-8.14,3.4-4.18,4.57.04,8.91.04,8.91l-3.74,4.1Z"/>
  </g>
  <path class="cls-2" d="M249.82,229.3c-.07,1.83-.16,4.04-.22,5.32,22.93-4.67,44.91-13.42,60.45-24.08,1.43-2.34,4.12-8.54,5.82-12.73-13.59,13.64-36.83,24.74-66.05,31.49Z"/>
  <path class="cls-2" d="M249.7,242.12c-.02,1.37-.07,4.04-.1,5.62,15.45-3.19,37.57-10.51,45.63-13.73,1.52-2.66,4.12-6.01,6.41-8.97.38-.49.75-.96,1.09-1.41-13.03,7.11-34.88,14.77-53.04,18.49Z"/>
  <path class="cls-2" d="M249.73,254.65c-.02,1.12-.02,2.79-.03,4.01v.04c16.22-4.09,31.87-5.88,38.42-5.35.39-2.64,1.25-6.53,1.89-9.04-8.77,2.83-28.29,7.96-40.29,10.35Z"/>
  <path class="cls-2" d="M236.83,277.23c.47,2.63.94,5.93,1.03,7.26,13.34-6.52,31.31-13.52,56.92-13.67-1.35-1.66-3.57-4.47-4.61-6.07-20.04-1.3-41.7,6.84-53.34,12.48Z"/>
  <path class="cls-2" d="M240.41,292.78l1.33,9.56c19.26-8.64,38.41-14.16,68.24-13.59-2.46-3.2-5.41-6.93-6.97-8.61-16.42-3.47-41.14,1.93-62.6,12.64Z"/>
  <path class="cls-2" d="M244.54,311.28l1.59,10.68s34.42-11.64,61.82-12.35c6.91-.18,13.79.17,16.57.37-1.77-3.23-4.85-8.32-7.47-11.55-26.93-5.47-72.51,12.86-72.51,12.86Z"/>
  <path class="cls-2" d="M185.41,299.86c-9.08,7.95-11.04,14.52-13.74,20.78,25.72-19.09,45.66-28.1,55.38-32.49l2.56-1.01c-.17-2.77-.69-7.16-.69-7.16-6.02,2.9-32.72,15.46-43.51,19.88Z"/>
  <path class="cls-2" d="M165.97,336.94c-.71,2.7-1.88,7.18-2.75,11.31,26.08-22.64,65.1-40.8,70.16-43.12,0,0-.78-7.72-1.01-9.47-25.27,11.22-48.81,25.85-66.4,41.28Z"/>
  <path class="cls-2" d="M160.48,363.24l-.26,1.66c-.21,1.33-.47,2.97-.65,4.25,31.51-21.81,59.99-37.2,77.26-43.93,0,0-.82-8.01-1.01-10.46-34.18,16.17-59,31.63-75.33,48.49Z"/>
</svg>