<?xml version="1.0" encoding="UTF-8"?>
<svg id="Layer_2" data-name="Layer 2" xmlns="http://www.w3.org/2000/svg" viewBox="0 0 360.04 555.46">
  <defs>
    <style>
      .cls-1 {
        fill: #fff;
      }

      .cls-2 {
        fill: #c1c5c8;
      }

      .cls-3 {
        fill: #ce0e2d;
      }

      .cls-4 {
        fill: #231f20;
      }
    </style>
  </defs>
  <g id="Layer_1-2" data-name="Layer 1">
    <g>
      <path class="cls-4" d="m353.74,551.39c-.32-.08-22-5.31-54.81-8.8-.33-1.02-.74-2.05-1.32-3.1-3.22-5.82-9.51-9.94-18.74-12.31-21.16-5.36-24.56-20.67-23.23-43.63,1.26-21.79,4.3-46.78,4.82-50.95,2.36-2.83,13.99-16.97,20.1-28.21l.2-.36.04-.39c1.84-15.14,9.04-30.89,17.39-49.14,14.69-32.12,32.93-72.03,35.78-134.09,4.01-1.59,9.44-4.49,9.72-4.63l1.19-.63-.11-1.38c-1.81-24.58,3.58-40.86,8.35-55.21,4.08-12.28,7.93-23.86,6.69-38.47l-.09-.94-.74-.56c-18.39-13.86-42.17-24.98-57.05-30.66l8.99-31.53c7.2-.7,14.52-1.68,21.8-2.94l.51-.08.4-.3c5.43-4.08,7.49-13.24,4.94-21.81-1.75-5.74-8.06-19.11-29.86-20.07-3.01-2.21-17.38-12.17-34.9-11.13-9.7.55-18.57,4.37-26.44,11.35-13.03,3.54-22.12,10.94-25,20.38-1.94,6.45-.64,13.17,3.41,17.52l.33.36.47.15c.24.1,5.93,2.14,16.39,4.11.49,1.78,9.69,29.76,8,27.74-30.85-1.15-51.14,4.22-59.05,14.8-4.6,6.16-5.54,14.23-2.82,24.01-1.71,4.15-10.95,26.65-21.81,56.89-.14.47-12.44,46.03-22.8,87.25l-.15.58.19.56c.46,1.48,1.52,4.66,2.55,6.51-.92,4.53-2.31,12.17-2.62,19.05-4.75,2.18-11.37,7.81-9.16,16.87l.54,2.21.4-.13c-25.65,54.02-39.01,184-136.23,245.18h353.45c.84,0,1.53-.79,1.62-1.87.08-1.04-.47-1.98-1.33-2.2Zm-133.05-264.13c5.32,42.41.46,73.17-1.58,83.31-31.62,35-57.34,8.28-57.89-44.76l16.07-15.5,5.08-29.76,2.06-.44.3-1.29c.13-.59,13.62-58.51,25.92-83.1.09-.17,8.81-16.05,18.39-26.29,2.64,5.78,3.77,11.54,4.91,17.17,1.18,5.99,2.32,11.67,5.16,16.28-6.63,10.11-23.8,41.13-18.4,84.37Z"/>
      <path class="cls-2" d="m280.7,542.07h-52.67c-2.88-6.55-2.88-15.47-2.88-15.47-7.36,1.84-8.12,10.75-8.12,10.75-4.73-22.28,6.8-31.89,2.97-63.01-1.14-9.23-1.6-17.85-1.56-25.85,4.92-1.13,13.58-2.25,24.52-.38-4.46,42.83-1.57,57.53-1.57,57.53-10.21,3.92-11.78,10.74-11.78,10.74,5.53-2.87,12.07-3.14,12.07-3.14,3.39,19.67,34.34,19.91,39.04,28.83Z"/>
      <path class="cls-2" d="m248.48,406.27c-1.9,12.11-3.35,22.89-4.51,32.47-4.92-.75-14.94-1.81-25.28.08,1.75-33.04,11.44-52.56,11.44-52.56l2.79,5.26c4.89-16.43,11.16-51.74,3.84-108.01-4.97-38.12,10.1-65.15,20.36-78.64,29.2-9.46,52.42-.83,65.21,6.44-18.58-.87-30.69,1.6-30.69,1.6,9.77,4.54,14.68,10.83,14.68,10.83-4.17,32.85-12.92,42.31-12.92,42.31-9.45-7.36-27.27-7.72-27.27-7.72,13.34,5.96,19.24,14.7,19.24,14.7,0,0-14.35,39.14-19.24,78.28-4.92,39.16-25.26,56.29-25.26,56.29l7.6-1.32Z"/>
      <g>
        <path class="cls-4" d="m232.35,38.5c1.15-16.14,20.48-17.79,20.48-17.79,18.69-19.66,50.38-5.33,59.15,10.22l-1.71-10.39c21.38,4.19,16.62,20,16.62,20-7.97-1.88-15.49-3.28-22.54-4.33-20.13-14.75-50.56-10.67-57.35-.92-3.12.46-5.74.94-7.87,1.43.88,2.59,2.07,4.51,2.07,4.51-4.59-.69-8.84-2.72-8.84-2.72Z"/>
        <path class="cls-2" d="m292.53,51.14c.04,2.1-2.8,3.76-6.32,3.76s-6.39-1.66-6.43-3.76c-.03-2.07,2.81-3.78,6.32-3.78s6.4,1.72,6.43,3.78Z"/>
        <path class="cls-2" d="m273.14,40.56c-2.84-.61-3.49,2.01-3.49,2.01l-2.79,9.73-4.17-5.82c-1.59-.4-3.56-.35-5.57,1.08-3.76,2.63-2.57,7.09-2.57,7.09l4.1,15.25c2.35,8.57,8.52,9.03,8.52,9.03l2.72.08s3.24-.22,3.24-3.32-3.33-3.31-3.33-3.31l-1.52-.11c-.25,0-1.66-.38-1.66-1.65s1.31-1.59,1.31-1.59l2.75-.38s1.58-.06,1.58-1.64-1.63-1.62-1.63-1.62h-6.16c-1.64-3.89,4.97-3.78,4.97-3.78-2.64-1.71-3.2-4.04-3.2-4.04h7.34l1.88-13.62s.48-2.77-2.31-3.36Z"/>
      </g>
      <path class="cls-2" d="m286.57,111.18c-4.82-1.79-9.96-4.43-9.96-4.43,5.76-1.21,11.04-4.47,11.04-4.47-15.57-4.52-24.74-14.51-24.74-14.51l-2.38,7.93c-68.21-6.24-57.34,16.89-57.34,16.89,0,0,5.09-15.69,26.85,2.55,11.49,9.63,24.18,7.37,33.63,1.15-4.13,9.62-11.87,17.09-11.87,17.09.21,2.96,8.89,43.35,8.89,43.35-5.15,5.87-10.81,14.67-10.81,14.67,23.58-10.78,50.66-6.28,50.66-6.28.04-53.79-13.98-73.93-13.98-73.93Z"/>
      <path class="cls-3" d="m230.47,104.72c13.47,12.57,32.35,8.55,42.84-.19,0,0-5.6-3.31-6.58-4.53l2.55-6.79c-4.14-3.01-6.38-5.45-6.38-5.45l-2.38,7.93c-26.79-2.45-41.35-.36-49.19,3.07,5.83-1.17,13.11.32,19.13,5.96Z"/>
      <g>
        <path class="cls-4" d="m279.13,133.43c1.02-.75,1.51-1.6,1.17-2.51-1.93-5.22-24.65-2.09-23.59,3.67.12.72.83,1.25,1.91,1.6,3.88-3.32,15.77-4.88,20.51-2.75Z"/>
        <path class="cls-4" d="m279.65,146.04c1.13-.68,1.69-1.49,1.39-2.41-1.61-4.8-22.24-2.53-21.42,2.7.1.74.91,1.3,2.17,1.65,3.7-2.63,13.48-3.66,17.86-1.93Z"/>
        <path class="cls-4" d="m280.46,157.56c1.25-.69,1.94-1.52,1.63-2.43-1.46-4.4-20.42-2.33-19.71,2.48.14.76,1.07,1.3,2.46,1.62,3.52-2.18,11.58-3.02,15.62-1.68Z"/>
        <path class="cls-4" d="m280.82,168.24c1.47-.66,2.31-1.49,1.95-2.44-1.31-4.01-18.57-2.12-17.92,2.27.15.79,1.23,1.28,2.76,1.58,3.28-1.7,9.62-2.35,13.22-1.42Z"/>
      </g>
      <path class="cls-2" d="m346.51,125.35s1.4,1.74-.35,5.25l-11.76-.3,5.69,7.44s-.03,3.85-4.23,16.28c-4.18,12.39-4.72,43.5-4.72,43.5,0,0-2.27-2.27-4.01-3.49,0,0-4.99-53.3-27-83.71,0,0,3.03-2.81,5.49-7.17,0,0,24.31,7.51,40.89,22.2Z"/>
      <path class="cls-3" d="m334.4,130.29l11.76.3c1.75-3.51.35-5.25.35-5.25-15.24-13.5-36.94-20.92-40.38-22.04,3.59,2.86,17.7,14.4,28.27,26.98Z"/>
      <path class="cls-2" d="m160.8,293.23l-1.5,5.24s-5.18-4.39-3.86-10.87c.45-2.07.92-6.65,1.4-10.77,4.35-1.57,11.03.05,14.05.98l-4.42,25.54s-4.35-2.71-5.67-10.12Z"/>
      <path class="cls-3" d="m169.48,262.89c7.32-26.77,17.14-52.33,26.34-72.81-3.32-2.83-6.64-4.41-8.46-5.15-1.39,3.95-15.05,42.99-23.75,77.26,3.17.17,5.87.69,5.87.69Z"/>
      <path class="cls-3" d="m194.16,175.16c3.64-.43,6.66-.43,8.81-.28,12.1-24.92,21.91-40.47,21.91-40.47-2.92-5.99-5.8-9.45-8.44-11.34-3.99,7.92-12.97,26.6-22.31,52.06l.04.02Z"/>
      <path class="cls-2" d="m190.82,175.66c1.17-.21,2.27-.37,3.34-.5l-.04-.02c9.34-25.46,18.32-44.14,22.31-52.06-6.82-4.87-12,.86-12,.86-26.73,56.89-45.87,138.4-45.87,138.4,1.6-.24,3.38-.24,5.04-.15,8.7-34.28,22.36-73.32,23.75-77.26-.87-.35-1.43-.53-1.43-.53,4.88-1.22,9.52-1.41,13.09-1.27,4.11.15,6.82.75,6.82.75-1.92-1.56-3.7-2.81-5.36-3.85-5.78-3.61-9.66-4.37-9.66-4.37Z"/>
      <path class="cls-1" d="m277,200.93c-6.25.46-12.88,1.66-19.87,3.93-10.26,13.49-25.32,40.52-20.36,78.64,6.28,48.22,2.57,81-1.7,99.76,8.68-24.65,14.04-50.54,14.04-101.08,0-42.84,19.25-70.84,27.89-81.24Z"/>
      <path class="cls-1" d="m230.14,493.92c-3.01-15.82-1.13-40.05-.52-46.78-4.67.13-8.5.72-11.19,1.34-.04,8,.43,16.62,1.56,25.85,3.83,31.12-7.7,40.73-2.97,63.01,0,0,.5-5.8,4.56-9,2-11.27,11.47-18.96,8.55-34.42Z"/>
      <path class="cls-3" d="m191.4,538.89c-13.39-6.16-22.82-20.87-22.82-20.87,0,0,21.88-18.1,25.33-38.49,3.46-20.38,8.82-31.45,8.82-31.45-1.82-23.04,3.88-45.88,3.88-45.88-38.78,27.18-52.93-29.31-52.93-29.31-1.5,40.19,12.51,62.63,12.51,62.63-28.07-30-23.06-73.43-23.3-74.86-1.29-7.65-9.47,24.76-9.47,24.76.09-9.51.91-18.21,1.99-25.68-13.65,18.65-10,22.28-25.21,59.09-43.1,104.34-62.04,104.09-72.93,117.7,38.15-3.43,70.08-8.41,70.08-8.41-9.05-8.23-27.35-19.22-27.35-19.22,53.75,6.75,104.45,34.15,104.45,34.15,11.35-1.23,19.46-2.05,19.46-2.05l-6.78-5.12-5.75,3.01Z"/>
    </g>
  </g>
</svg>