<svg id="Layer_1" xmlns="http://www.w3.org/2000/svg" viewBox="0 0 96 120">
  <style>
    .st2{fill:none}.st3{fill:#8d183c}
  </style>
  <path d="M92.3 6.6C92.2 6.6 73.9 0 47.6 0 21.4 0 3.1 6.6 3 6.6-1.3 16.4-9.1 74 46.9 119.4l.7.6.7-.6c56.1-45.4 48.3-103 44-112.8" fill="#ffc72c"/>
  <path d="M87.8 11.2c-.1-.1-16.5-6-40.1-6s-40 5.9-40.1 6c-4 8.7-11 59.6 39.4 100.5l.6.5.6-.5C98.7 70.8 91.6 19.9 87.8 11.2" fill="#fff"/>
  <path class="st2" d="M0 0h95.3v120H0z"/>
  <path class="st2" d="M0 0h95.3v120H0z"/>
  <path class="st3" d="M33.4 99.1c3.9 4.2 8.5 8.5 13.5 12.6l.6.5.6-.5c5.2-4.2 9.4-8.2 13.4-12.5-4.1 3-8.6 4.3-14 4.3-5.1-.1-10.1-1.8-14.1-4.4zM37.7 63s-2.4.3-4.7 2.4V92h4.7V63zm27.2 8.8v-6.4s-5.6-3.1-11.9-3.1c-6.3 0-11 3.1-11 3.1V72h5v-3.4s.9-1.5 6-1.5 6.6 1.8 6.6 1.8v1.4l-17.5 17V92h20c1.5-1.7 3.8-4.7 3.8-4.7H49.6l15.3-15.5zM50 39c-.7-1 6.4 10 20.3 17.5-1.3-2.4-2.7-4.9-4.1-7.5-6.6-2.6-11.8-6.2-16.2-10z"/>
  <path class="st3" d="M39.9 29.3c-3.3 6.1-7.1 13-10.6 19.4 3.7-2.9 17.9-13.4 18.3-13.9 4.8 3.9 14.2 10.8 18.5 14.1-3.2-5.8-6.5-12-9.6-17.6-.4-.6-.7-1.3-1-1.9v-.1h-.1c-2.7-.1-6.7-.2-7.7-.2s-5 .1-7.8.2zm11.9-6.6l-4.1-7.5-4.1 7.5s2.5-.1 4.1-.2c1.6 0 4.1.2 4.1.2zm-28.5 1.7l.1-.1c.5-.9.9-1.7 1.3-2.3.9-1.7 1.6-2.9 3.1-5.7l.2-.3h-.3c-3.8.5-6.9 1.1-12.6 2.5H15v.1c-.4 2.1-.6 3.7-.8 7.6v.2l.2-.1c2.9-.8 8.9-1.9 8.9-1.9z"/>
  <path class="st3" d="M87.6 11.2c-.1-.1-16.4-6-40-6s-39.9 5.9-40 6C4.4 18.3-.8 53.6 24.8 88.5c-1.4-3.1-2.1-6.6-2.1-10.3C22.7 64.3 33.8 53 47.4 53c3.9 0 7.6.9 10.8 2.6 1.1.5 2 1 2.9 1.6 0 0-.1 0 0 0-6.8-9.1-19.7-15.1-31.8-8.5-3.2 5.9-6.1 11.3-8.3 15.4-1.9 3.5-3.5 6.4-4 7.3-1.8-3.5-3.1-6.9-3.3-7.5L44.1 8.1h7c3.6 6.3 25.9 47.4 29.7 54.4v.1c.2.5.4.8.5.9l1.6 2.9c11-26.6 7.2-49.6 4.7-55.2zm-54 8.1c-2.9 5.3-5.4 9.9-6 11C20 31.4 14.3 33 14.2 33h-.1v.1c0 .1.1 8.8 2.6 18.7-1.6 3-3.8 7-4.4 8.1-5.3-16.7-6.4-34-2.8-46.6.1 0 .5-.1 1.3-.4l.2-.1c11-3.2 21.6-4.3 28.7-4.7-1.8 3.3-4 7.3-6.1 11.2zm54 16.9c-.2 3.2-.8 10.6-4.4 22.4-.7-1.2-3.1-5.7-6.3-11.6-5.6-10.4-14-26-21.3-38.9 14.8.9 25.2 3.6 30.2 5.2.2.6 1.9 6.3 2.1 14.7-.9-.3-4.1-1.2-6.3-1.9 0-2-.2-5-.7-7.5v-.1h-.1c-5.4-1.4-9-2-12.9-2.6l-.3-.1.2.3c4 7.1 6.4 11.7 8.4 15.4 1.5 2.9 2.9 5.4 4.5 8.3l.2.4.1-.5c.6-4.5.6-6.1.6-6.6V33c1.9.5 4.1 1.2 6.3 1.8-.2.5-.2.9-.3 1.4z"/>
</svg>
