<?xml version="1.0" encoding="UTF-8" standalone="no"?>
<svg width="247px" height="340px" viewBox="0 0 247 340" version="1.1" xmlns="http://www.w3.org/2000/svg" xmlns:xlink="http://www.w3.org/1999/xlink">
    <!-- Generator: Sketch 49.3 (51167) - http://www.bohemiancoding.com/sketch -->
    <title>Group 45</title>
    <desc>Created with Sketch.</desc>
    <defs>
        <polygon id="path-1" points="0 340 246.362437 340 246.362437 0.290918635 0 0.290918635"></polygon>
    </defs>
    <g id="Page-1" stroke="none" stroke-width="1" fill="none" fill-rule="evenodd">
        <g id="General-page-with-sidebar" transform="translate(-110.000000, -3028.000000)">
            <g id="SDC" transform="translate(0.000000, 2972.000000)">
                <g id="Page-1" transform="translate(110.000000, 56.000000)">
                    <g id="Group-45">
                        <path d="M165.153295,197.355543 L164.184913,197.620583 C164.184913,197.611659 162.662786,194.6641 160.742071,191.221265 C159.11205,188.299585 157.182418,185.02095 155.695068,182.941685 L146.182447,258.025465 L145.156104,257.999585 L141.572375,201.780898 L122.992981,322.969927 L121.977339,322.969927 L103.404187,201.786252 L99.8142159,257.999585 L98.7950065,258.025465 L89.2850606,182.941685 C87.7968188,185.02095 85.85827,188.299585 84.2327069,191.221265 C82.309317,194.6641 80.7996744,197.611659 80.7880823,197.620583 L79.8223747,197.355543 C80.0007141,194.592709 80.0782917,191.743312 80.0782917,188.848404 C80.0782917,161.71801 73.0062448,129.982892 70.0154939,117.612604 C51.6946924,121.083995 38.1792448,125.325517 33.1500751,127.015701 C33.7056022,194.572184 58.2754144,246.828667 78.9244361,278.900215 C97.5751653,307.867144 116.347165,325.892499 122.484714,331.429769 C128.64188,325.871974 147.518209,307.731501 166.181422,278.690504 C186.769808,246.654651 211.266501,194.466882 211.820245,127.016593 C206.7884,125.328194 193.267602,121.089349 174.955718,117.617066 C171.968534,129.987354 164.895595,161.722472 164.895595,188.848404 C164.895595,191.743312 164.974064,194.592709 165.153295,197.355543" id="Fill-5" fill="#FEFEFE"></path>
                        <polygon id="Fill-7" fill="#FEFEFE" points="113.936909 225.720199 122.490956 307.323769 131.033411 225.720199 122.490956 225.720199"></polygon>
                        <path d="M144.611188,108.960719 L145.859564,108.227176 C146.424899,107.894315 147.068704,107.523081 147.757986,107.132215 C146.977751,107.058147 146.192166,106.987648 145.403906,106.918934 C145.218434,107.355312 145.120347,107.609643 145.117672,107.617675 L144.611188,108.960719 Z" id="Fill-9" fill="#8D0B39"></path>
                        <path d="M99.1194058,108.226908 L100.368673,108.960451 L99.8559473,107.617407 C99.8541639,107.610268 99.7560773,107.355045 99.5706043,106.919559 C98.7841278,106.986488 98.0003264,107.056987 97.2209834,107.131055 C97.9120484,107.522814 98.5549617,107.894047 99.1194058,108.226908" id="Fill-11" fill="#8D0B39"></path>
                        <path d="M188.095315,67.9404777 C174.241023,75.2991129 166.049896,82.8513963 155.414629,97.5659895 L155.387878,97.5909764 L152.873294,100.584047 C155.628636,99.2918688 159.444207,97.4312388 163.192008,96.0605302 C164.521528,95.577748 167.083373,94.854021 167.083373,94.854021 C166.551922,95.7357008 165.51042,97.5383255 165.137691,98.2138635 C157.105286,113.059638 151.711413,139.661738 149.054156,152.789664 C148.750979,154.292446 148.487929,155.60515 148.265005,156.671554 C148.099149,157.446147 147.828073,157.908404 147.402734,158.467932 C146.922109,159.116698 146.246203,159.484362 145.967994,159.644992 L139.060911,162.797801 L135.768766,164.309507 C135.49234,164.434441 135.055409,164.587932 134.506124,164.608457 L134.459756,164.608457 C133.942571,164.608457 133.181062,164.46032 132.530124,163.772289 C132.484647,163.712499 132.446304,163.66074 132.393694,163.593811 C131.798041,162.911134 131.615243,162.276646 131.547474,161.388719 C131.452062,160.288404 131.364676,159.122052 131.275506,157.929822 C131.01959,154.419165 130.821633,150.538168 130.645077,146.3841 C129.756947,124.397433 129.969171,95.1538635 130.118976,77.2730761 C130.169803,71.3520787 130.211712,66.2395853 130.199229,62.3692966 L130.199229,62.3621575 L130.199229,62.2961207 L130.15286,62.2523937 C128.963337,61.0182205 127.116633,59.1442047 126.580723,58.5927087 C127.322615,58.8711339 128.795698,59.5734436 130.72533,60.7397953 C131.735622,61.3546509 132.857377,62.0917638 134.076326,62.9529186 C135.735774,64.1442572 137.55216,65.5881417 139.408673,67.2774331 C139.856304,67.681685 140.295911,68.1073543 140.742651,68.5303465 L141.134997,68.9203202 L141.027102,68.3715013 C138.738117,56.6276693 137.06351,47.7082467 134.565868,39.2305564 C133.511882,35.645832 132.292932,32.1316063 130.835008,28.5201102 C128.726145,23.3594278 126.113474,15.9454646 122.620698,9.85223622 L122.489618,9.62110761 L122.354081,9.85223622 C118.868438,15.9454646 116.243283,23.3594278 114.148687,28.5201102 C112.674712,32.1316063 111.470922,35.645832 110.406236,39.2305564 C107.905026,47.7082467 106.243795,56.6276693 103.94946,68.3715013 L103.837997,68.9203202 L104.236586,68.5303465 C104.680651,68.1073543 105.126499,67.681685 105.565214,67.2774331 C107.421727,65.5881417 109.239005,64.1442572 110.900236,62.9529186 C112.11651,62.0917638 113.249857,61.3546509 114.249449,60.7397953 C116.17373,59.5734436 117.658405,58.8711339 118.394055,58.5927087 C117.864387,59.1442047 116.011442,61.0182205 114.829943,62.2523937 L114.768416,62.2961207 L114.768416,62.3621575 L114.768416,62.3692966 C114.768416,66.2395853 114.813001,71.3520787 114.863828,77.2730761 C115.009174,95.1538635 115.22229,124.397433 114.330593,146.3841 C114.160279,150.538168 113.961431,154.419165 113.699272,157.929822 C113.613669,159.122052 113.527174,160.288404 113.427304,161.388719 C113.359535,162.276646 113.184763,162.911134 112.581084,163.593811 C112.526691,163.66074 112.504398,163.712499 112.44733,163.772289 C111.796391,164.46032 111.031315,164.608457 110.513239,164.608457 L110.466871,164.608457 C109.919369,164.587932 109.486005,164.434441 109.200662,164.309507 L105.912084,162.797801 L99.0005426,159.644992 C98.7357087,159.484362 98.0606942,159.116698 97.5622357,158.467932 C97.1529469,157.908404 96.8818711,157.446147 96.720474,156.671554 C96.4832827,155.60515 96.2300408,154.292446 95.920622,152.789664 C93.2651491,139.661738 87.8766256,113.059638 79.8370877,98.2138635 C79.468817,97.5383255 78.4228567,95.7357008 77.8922971,94.854021 C77.8922971,94.854021 80.4603838,95.577748 81.7800949,96.0605302 C85.5296798,97.4312388 89.3523838,99.2918688 92.1104018,100.584047 L89.5940336,97.5909764 L89.5637159,97.5659895 C78.9257736,82.8513963 70.7382141,75.2991129 56.8785715,67.9404777 C55.3261274,67.1123412 53.7148314,66.2895591 52.0072321,65.4632073 L51.4418964,65.1856745 L51.7816329,65.7086142 C74.4235968,100.307407 80.3328711,138.634598 84.8395065,176.088142 L84.9679108,177.181318 L90.0051058,172.795228 L112.89942,184.480163 L112.948463,197.395701 L122.489618,197.395701 L132.028099,197.395701 L132.075358,184.480163 L154.976806,172.795228 L160.003301,177.181318 L160.130813,176.088142 C164.631207,138.634598 170.546723,100.307407 193.191362,65.7086142 L193.531099,65.1856745 L192.968438,65.4632073 C191.26173,66.2895591 189.655784,67.1123412 188.095315,67.9404777" id="Fill-13" fill="#FFCD34"></path>
                        <mask id="mask-2" fill="white">
                            <use xlink:href="#path-1"></use>
                        </mask>
                        <g id="Clip-16"></g>
                        <polygon id="Fill-15" fill="#FFCD34" mask="url(#mask-2)" points="112.899509 206.694121 132.08169 206.694121 132.08169 200.103832 112.899509 200.103832"></polygon>
                        <polygon id="Fill-17" fill="#FFCD34" mask="url(#mask-2)" points="113.936909 225.720199 122.490956 307.571853 131.033411 225.720199"></polygon>
                        <polygon id="Fill-18" fill="#FFCD34" mask="url(#mask-2)" points="112.91984 216.630777 113.577912 223.148782 131.39223 223.148782 132.061002 216.630777"></polygon>
                        <polygon id="Fill-19" fill="#FFCD34" mask="url(#mask-2)" points="114.963787 214.066142 130.012953 214.066142 130.012953 209.250814 114.963787 209.250814"></polygon>
                        <path d="M44.6327217,135.127512 C44.5283931,132.539585 66.4311404,123.621948 66.4311404,123.621948 C53.9464942,126.18221 44.1369383,128.990556 38.4104617,130.782472 C39.8229094,195.253969 63.4136386,245.195596 83.2984762,276.082945 C94.4901621,293.463102 105.680065,306.791816 114.050422,315.754073 C114.050422,315.754073 48.980635,242.505045 44.6327217,135.127512" id="Fill-20" fill="#FFCD34" mask="url(#mask-2)"></path>
                        <path d="M130.920522,315.753895 C139.290879,306.791638 150.480782,293.462924 161.671576,276.082766 C181.557305,245.19631 205.147143,195.254682 206.559591,130.783186 C200.833114,128.990378 191.02445,126.182031 178.538912,123.621769 C178.538912,123.621769 200.443443,132.539407 200.339114,135.127333 C195.990309,242.504866 130.920522,315.753895 130.920522,315.753895" id="Fill-21" fill="#FFCD34" mask="url(#mask-2)"></path>
                        <path d="M149.357066,232.968268 L155.694355,182.940971 C157.181705,185.021129 159.111336,188.298871 160.74225,191.221444 C162.662965,194.664278 164.185091,197.611837 164.185091,197.620761 L165.153474,197.355722 C164.974243,194.592887 164.895773,191.743491 164.895773,188.848583 C164.895773,161.722651 171.96782,129.987533 174.955896,117.617244 C193.267781,121.088635 206.788578,125.32748 211.820423,127.015879 C211.459286,170.979396 200.924781,208.452572 187.932759,238.094147 C176.389744,235.92832 163.412882,234.068583 149.357066,232.968268 Z M122.484892,331.429948 C118.039784,327.419554 106.964019,316.84832 94.1093184,300.323071 C105.41425,298.917559 113.667795,298.459764 118.198506,298.316089 L121.976625,322.969213 L122.99316,322.969213 L126.770387,298.330367 C131.445553,298.489213 139.68929,298.963071 150.840849,300.346273 C138.004874,316.840289 126.930001,327.416877 122.484892,331.429948 Z M57.037026,238.087008 C44.0396542,208.433832 33.5113906,170.96601 33.1502534,127.015879 C38.1794231,125.325696 51.6948708,121.084173 70.0147805,117.612782 C73.0064231,129.983071 80.07847,161.718189 80.07847,188.848583 C80.07847,191.743491 80.0008924,194.592887 79.8225531,197.355722 L80.7882606,197.620761 C80.7998527,197.611837 82.3094953,194.664278 84.2328852,191.221444 C85.8584484,188.298871 87.7961054,185.021129 89.2843473,182.940971 L95.6198527,232.958451 C81.4953762,234.057874 68.5202968,235.921181 57.037026,238.087008 Z M108.067939,232.212415 C105.834239,232.307008 103.623723,232.420341 101.439957,232.554199 L103.404365,201.78643 L108.067939,232.212415 Z M122.491134,206.696352 L112.900044,206.696352 L112.900044,200.104278 L122.491134,200.104278 L132.082225,200.104278 L132.082225,206.696352 L122.491134,206.696352 Z M114.96343,214.066588 L114.96343,209.25126 L118.07991,209.25126 L122.491134,209.25126 L126.8979,209.25126 L130.011705,209.25126 L130.011705,214.066588 L122.491134,214.066588 L114.96343,214.066588 Z M122.491134,223.148425 L113.577734,223.148425 L112.946412,216.900814 L112.919661,216.63042 L112.966921,216.63042 L122.491134,216.63042 L132.010889,216.63042 L132.059932,216.63042 L132.026048,216.900814 L131.392943,223.148425 L122.491134,223.148425 Z M123.458625,298.251837 L122.491134,307.571942 L121.545044,298.250945 C121.677907,298.25273 123.042203,298.250945 123.458625,298.251837 Z M114.633503,232.000026 L113.937087,225.720289 L122.491134,225.720289 L131.033589,225.720289 L130.338066,232.000919 C127.893033,231.944698 117.066051,231.943806 114.633503,232.000026 Z M143.535178,232.561339 C141.348737,232.426588 139.138221,232.312362 136.906304,232.216877 L141.572553,201.781076 L143.535178,232.561339 Z M51.7813653,65.7052231 L51.4407372,65.1822835 L52.008748,65.4598163 C53.7145639,66.286168 55.3258599,67.1098425 56.8791957,67.937979 C70.7388383,75.2966142 78.9255061,82.8480052 89.5643401,97.561706 L89.5937661,97.5875853 L92.1092426,100.579764 C89.3530079,99.2884777 85.5294123,97.4278478 81.7798274,96.0571391 C80.4601162,95.574357 77.8920296,94.8515223 77.8920296,94.8515223 C78.4243726,95.7332021 79.4703329,97.5358268 79.8368202,98.2095801 C81.4864592,101.255302 83.021961,104.801654 84.4477841,108.619291 C84.830322,109.644646 85.2057264,110.68874 85.5722137,111.74979 C85.9342426,112.795669 86.2891379,113.854934 86.6351162,114.928478 C90.9964051,128.462441 94.1004014,143.789213 95.9221379,152.787165 C96.230665,154.289055 96.4847986,155.602651 96.7202065,156.669055 C96.8816036,157.443648 97.1544628,157.906798 97.5619682,158.464541 C98.0604267,159.112415 98.7354412,159.481864 99.0011668,159.641601 L105.912708,162.795302 L109.200394,164.306115 C109.486629,164.430157 109.919994,164.585433 110.465712,164.605066 L110.512972,164.605066 C111.030156,164.605066 111.796123,164.456929 112.447062,163.76979 C112.504131,163.71 112.527315,163.658241 112.580817,163.59042 C113.184495,162.908635 113.359268,162.273255 113.42882,161.385328 C113.526907,160.285013 113.615185,159.119554 113.699004,157.927323 C113.961163,154.416667 114.160012,150.534777 114.330326,146.380709 C114.748531,136.068268 114.924196,124.159344 114.976806,112.575249 C114.982156,111.478504 114.985723,110.385328 114.988398,109.295722 C114.991073,108.199869 114.993748,107.106693 114.99464,106.020656 C115.00534,95.289685 114.927762,85.17 114.862669,77.269685 C114.812734,71.3486877 114.76904,66.2361942 114.76904,62.3659055 L114.76904,62.3596588 L114.76904,62.293622 L114.829676,62.2490026 C116.012066,61.0157218 117.865012,59.1408136 118.394679,58.59021 C117.65903,58.8686352 116.173463,59.5709449 114.249181,60.7372966 C113.249589,61.3512598 112.118026,62.0883727 110.901752,62.9486352 C109.238737,64.1408661 107.422351,65.5865354 105.565838,67.2731496 C105.12534,67.678294 104.679492,68.1030709 104.235427,68.5269554 L103.839513,68.9169291 L103.950975,68.369895 C106.242636,56.6251706 107.904759,47.705748 110.407752,39.2280577 C111.469762,35.6424409 112.676228,32.1273228 114.148419,28.5167192 C116.243015,23.3569291 118.869062,15.9420735 122.354705,9.84884514 L122.491134,9.61860892 L122.62043,9.84884514 C126.115882,15.9420735 128.727661,23.3569291 130.833849,28.5167192 C132.292665,32.1273228 133.511614,35.6424409 134.563817,39.2280577 C137.061459,47.705748 138.738741,56.6251706 141.028618,68.369895 L141.132947,68.9169291 L140.743275,68.5269554 C140.295643,68.1030709 139.856929,67.678294 139.409297,67.2731496 C137.551001,65.5865354 135.738181,64.1408661 134.074275,62.9486352 C132.857109,62.0883727 131.735355,61.3512598 130.72417,60.7372966 C128.79543,59.5709449 127.320564,58.8686352 126.578672,58.59021 C127.11904,59.1408136 128.963069,61.0157218 130.152593,62.2490026 L130.199853,62.293622 L130.199853,62.3596588 L130.199853,62.3659055 C130.211445,66.2361942 130.169535,71.3486877 130.1196,77.269685 C130.053614,85.17 129.975145,95.289685 129.98317,106.021549 C129.984954,107.106693 129.986737,108.199869 129.989412,109.296614 C129.992087,110.38622 129.995654,111.478504 130.001004,112.576142 C130.053614,124.159344 130.227495,136.068268 130.643918,146.380709 C130.821365,150.534777 131.01843,154.416667 131.276131,157.927323 C131.366192,159.119554 131.451795,160.285013 131.547206,161.385328 C131.614084,162.273255 131.798665,162.908635 132.394318,163.59042 C132.446037,163.658241 132.486163,163.71 132.53164,163.76979 C133.179012,164.456929 133.942304,164.605066 134.459488,164.605066 L134.508531,164.605066 C135.053358,164.585433 135.492073,164.430157 135.771174,164.306115 L139.062427,162.795302 L145.967726,159.641601 C146.245044,159.481864 146.922734,159.112415 147.401575,158.464541 C147.827806,157.906798 148.099773,157.443648 148.264737,156.669055 C148.487661,155.602651 148.752495,154.289055 149.055672,152.787165 C150.875625,143.790105 153.982297,128.465118 158.341802,114.932047 C158.688672,113.858504 159.043568,112.797454 159.405596,111.750682 C159.772084,110.689633 160.146596,109.645538 160.529134,108.620184 C161.954066,104.801654 163.489568,101.256194 165.137423,98.2095801 C165.510152,97.5358268 166.553438,95.7332021 167.083105,94.8515223 C167.083105,94.8515223 164.519477,95.574357 163.194416,96.0571391 C159.444831,97.4278478 155.628369,99.2884777 152.873026,100.579764 L155.386719,97.5875853 L155.414362,97.561706 C166.050521,82.8480052 174.242539,75.2966142 188.095048,67.937979 C189.655517,67.1098425 191.261463,66.286168 192.969954,65.4598163 L193.532614,65.1822835 L193.191095,65.7052231 C183.767643,80.1056955 177.246665,95.1531496 172.513539,110.513832 C172.192528,111.555249 171.877759,112.598451 171.572799,113.642546 C171.262488,114.704488 170.960203,115.767323 170.665943,116.831942 C165.269394,136.377034 162.501568,156.351365 160.130546,176.084751 L160.003033,177.177034 L154.97743,172.791837 L132.076874,184.477664 L132.026048,197.394094 L112.948196,197.394094 L112.900044,184.477664 L90.0048383,172.791837 L84.968535,177.177034 L84.8401307,176.084751 C82.4655422,156.350472 79.6977155,136.373465 74.3020585,116.82748 C74.0086903,115.764646 73.7055134,114.703596 73.3960946,113.643438 C73.0911343,112.598451 72.777257,111.555249 72.4562462,110.513832 C67.7240116,95.1531496 61.2048166,80.1056955 51.7813653,65.7052231 Z M243.366871,253.446798 C243.060127,253.318294 224.356788,245.558084 194.503672,239.389895 C207.76677,208.727428 218.374394,170.040604 218.374394,124.68853 L218.374394,122.406693 L216.236105,121.616037 C215.979297,121.520551 200.255116,115.789633 176.652795,111.277717 C179.920864,100.656509 185.917524,87.8587664 191.378275,77.2625459 C197.599643,65.1947769 203.099629,56.0067454 203.105871,55.9933596 L203.920882,54.6288976 L202.469199,55.2508924 C161.370004,72.8479003 147.455077,102.10664 145.403282,106.919291 C146.192434,106.987113 146.978019,107.057612 147.758253,107.13168 C151.469495,105.027428 156.708214,102.2521 160.489008,100.693097 C159.479607,102.844646 158.379253,105.383491 157.240557,108.185591 C156.830376,109.19399 156.415737,110.237192 155.997531,111.308058 C155.595376,112.340551 155.190546,113.398924 154.784824,114.479606 C150.716012,125.319449 146.595481,138.350997 144.525853,148.574199 C144.253885,149.924383 143.806253,151.059501 143.575304,152.132152 C143.423716,152.834462 143.294419,153.264593 143.014427,153.791995 C142.689849,154.430052 142.099546,154.927113 141.399564,155.483071 C140.836903,155.948898 137.779275,157.450787 137.772142,157.457034 C137.759658,157.468635 137.085535,157.822021 136.350777,158.171837 C135.974481,158.3521 135.594618,158.528793 135.283416,158.662651 C135.265582,158.668898 135.237939,158.676929 135.230806,158.682283 L135.065842,155.898924 C134.324842,137.220341 133.93517,123.505223 133.774665,112.718924 C133.758614,111.591837 133.743456,110.497769 133.732755,109.43315 C133.71938,108.309633 133.709571,107.218241 133.701546,106.157192 C133.689954,104.363491 133.683712,102.652782 133.684604,101.019711 C133.684604,87.8685827 134.074275,79.4774541 134.443438,68.90979 C137.336994,71.2746194 146.166575,78.5877428 146.181734,78.5877428 L147.117123,79.3775066 L147.016362,78.1522572 C145.255261,57.9619685 139.303185,38.6515748 135.265582,27.6359318 C133.928037,24.0190814 132.590492,20.8573491 131.298423,18.1159318 C126.927326,8.82259843 123.117105,1.50858268 122.943225,1.17036745 L122.491134,0.291364829 L122.030127,1.17036745 C121.85803,1.50858268 118.046918,8.82259843 113.666903,18.1159318 C112.38286,20.8573491 111.044423,24.0190814 109.710445,27.6359318 C105.679975,38.6515748 99.7287913,57.9619685 97.959665,78.1522572 L97.8482029,79.3694751 L98.7942931,78.5877428 C98.8049935,78.5823885 107.63725,71.2683727 110.536156,68.90979 C110.901752,79.4774541 111.297665,87.8685827 111.297665,101.019711 C111.297665,102.652782 111.291423,104.363491 111.278048,106.157192 C111.270914,107.217349 111.260214,108.30874 111.24773,109.43315 C111.236138,110.497769 111.221871,111.591837 111.204929,112.718031 C111.044423,123.505223 110.657427,137.223911 109.91286,155.914094 L109.742546,158.682283 C108.831232,158.304803 107.217261,157.468635 107.217261,157.468635 C107.200318,157.457034 104.14269,155.948898 103.574679,155.483071 C102.870239,154.927113 102.285286,154.430052 101.955358,153.791995 C101.688741,153.264593 101.558553,152.834462 101.406073,152.139291 C101.174232,151.059501 100.7159,149.924383 100.449282,148.574199 C98.3760874,138.350105 94.2582318,125.316772 90.1920946,114.476037 C89.7872643,113.396247 89.3833256,112.338766 88.9811704,111.307165 C88.5638563,110.236299 88.1492173,109.193097 87.7390368,108.184698 C86.6012318,105.382598 85.5017697,102.844646 84.4914773,100.693097 C88.2687047,102.2521 93.5118816,105.026535 97.2213401,107.130787 C98.000683,107.057612 98.7835928,106.987113 99.570961,106.919291 C97.5200585,102.104856 83.6024556,72.8470079 42.5014773,55.2508924 L41.0578202,54.6360367 L41.8710477,55.9933596 C41.8746144,55.9996063 47.3763834,65.1947769 53.5852679,77.2625459 C59.0585025,87.8587664 65.0533798,100.656509 68.3187733,111.277717 C44.7155603,115.789633 28.9922715,121.520551 28.7345711,121.616037 L26.5962823,122.406693 L26.5962823,124.68853 C26.5962823,170.041496 37.2056903,208.729213 50.4687877,239.39168 C21.3004953,245.465276 3.30159639,253.043438 2.9957444,253.172835 L-0.0003566787,254.435564 L13.4187877,298.730157 L73.0429827,292.544121 C75.3890368,295.979816 77.7199321,299.265591 80.0107011,302.357717 C82.3237625,301.979344 84.5253617,301.640236 86.618174,301.335039 C104.57338,325.083281 119.618979,337.660604 120.394755,338.302231 L122.485784,339.999554 L124.577705,338.302231 C125.353481,337.660604 140.389271,325.091312 158.336452,301.359134 C160.432831,301.664331 162.636214,302.002546 164.949275,302.380026 C167.226669,299.309318 169.542405,296.04853 171.872409,292.636037 L233.883676,299.005906 L246.36208,254.71042 L243.366871,253.446798 Z" id="Fill-22" fill="#8D0B39" mask="url(#mask-2)"></path>
                        <path d="M172.98703,284.513339 C163.589438,282.716961 155.527607,281.517591 149.081531,280.718903 C132.221329,278.632499 122.445658,278.692289 122.353813,278.693181 L122.301203,278.694073 L122.224517,278.693181 C122.124647,278.686934 112.447954,278.632499 95.6840549,280.718903 C89.2950477,281.514913 81.3036614,282.709822 71.9791884,284.494598 C72.1914123,284.82389 72.4063112,285.16389 72.6176433,285.487827 C76.223665,291.016173 78.3325278,294.066357 81.8377877,298.730871 C86.4353762,297.988404 92.2037625,297.231659 95.8222679,296.78368 C112.586167,294.695491 122.263752,294.817748 122.361838,294.826672 L122.439416,294.826672 L122.492918,294.826672 C122.582979,294.823102 132.358651,294.695491 149.221528,296.781895 C152.894427,297.235228 158.122445,297.97948 162.793152,298.730871 C166.304654,294.062787 168.747903,291.025097 172.358383,285.487827 C172.56704,285.168352 172.778373,284.835491 172.98703,284.513339" id="Fill-23" fill="#FEFEFE" mask="url(#mask-2)"></path>
                        <path d="M122.489886,235.421444 C191.556258,235.421444 242.00311,256.68706 242.00311,256.68706 L231.637135,294.626063 C166.950778,274.529475 122.284796,275.247848 122.284796,275.247848 L122.259828,275.247848 C122.259828,275.247848 80.3509726,274.254619 15.6655069,294.3521 L4.35879206,256.412205 C4.35879206,256.412205 53.3985466,235.421444 122.464918,235.421444" id="Fill-24" fill="#FEFEFE" mask="url(#mask-2)"></path>
                        <path d="M36.9283726,274.263008 C36.9997083,275.583743 36.7643004,276.786682 36.221257,277.870934 C35.6791054,278.956079 34.8712282,279.901118 33.8003004,280.70873 C33.225156,280.959491 32.6473365,281.220961 32.0686253,281.494924 C31.4881307,281.76621 30.8354087,281.998231 30.1086758,282.187417 C28.5259141,282.599701 26.9841704,282.753192 25.4807697,282.646997 C23.9782606,282.541696 22.5390621,282.00894 21.163174,281.04873 L19.9361993,281.367312 C20.234026,280.499018 20.3472715,279.592352 20.2768274,278.64642 C20.2054917,277.702273 20.0271523,276.678703 19.7409177,275.576604 L22.3312968,274.901066 L25.4665025,274.08453 L25.9863617,276.079018 C26.0559141,276.345843 26.1861018,276.570724 26.3796,276.752772 C26.5730982,276.935711 26.7879971,277.072247 27.0251884,277.16327 C27.2614881,277.254294 27.5174051,277.303375 27.7920477,277.313192 C28.0666903,277.323008 28.3217155,277.297129 28.5580152,277.234661 C29.0306144,277.112404 29.4363365,276.880383 29.7751812,276.537706 C30.1122426,276.195921 30.1951704,275.693507 30.0221812,275.027785 C29.8741596,274.458441 29.5442318,274.012247 29.0332895,273.687417 C28.5214556,273.365265 27.9070765,273.089517 27.1874773,272.860173 C26.467878,272.632614 25.6814014,272.405948 24.827156,272.181958 C23.9729105,271.958861 23.1222318,271.673297 22.2742282,271.325265 C21.0312029,270.797864 19.9040982,270.031302 18.8955892,269.02558 C17.8870801,268.021643 17.1772895,266.730357 16.767109,265.152614 C16.4710657,264.013034 16.4996,262.96537 16.8527119,262.011407 C17.2058238,261.056551 17.7417336,260.20789 18.4613329,259.461853 C19.1800404,258.717601 20.0111018,258.090252 20.9563004,257.579806 C21.9006072,257.070252 22.8190549,256.699018 23.7098599,256.466997 C24.3278058,256.305475 25.0019285,256.191249 25.7313365,256.122535 C26.4607444,256.054714 27.191044,256.061853 27.9213437,256.144845 C28.6516433,256.22873 29.3605422,256.399176 30.0489321,256.657076 C30.737322,256.914084 31.3570513,257.285318 31.9107949,257.769885 L33.0833762,257.463795 C32.8078419,258.346367 32.7044051,259.236079 32.7730657,260.131144 C32.839943,261.027102 33.0057986,261.977496 33.2679574,262.98411 L27.5405892,264.476184 L27.0216217,262.481696 C26.9172931,262.082798 26.6836686,261.819543 26.320748,261.690147 C25.956044,261.562535 25.53873,261.558966 25.0661307,261.682115 C24.5935314,261.805265 24.2261523,261.998021 23.9639935,262.258598 C23.7018347,262.520068 23.5457877,262.819018 23.4976361,263.155449 C23.4503762,263.493664 23.5020946,263.844373 23.6563581,264.20936 C23.80973,264.576131 24.077239,264.933087 24.4588852,265.279333 C24.7041018,265.478336 24.9760693,265.646105 25.273896,265.781748 C25.570831,265.917391 25.9141343,266.046787 26.3055892,266.16726 C26.6961523,266.288625 27.1491343,266.409097 27.6654267,266.527785 C28.1817191,266.648257 28.7711307,266.783008 29.431878,266.935606 C29.5834664,266.997181 29.8349249,267.083743 30.18447,267.195291 C30.5331235,267.307732 30.9441957,267.469255 31.4159032,267.681643 C31.8893942,267.892247 32.3896361,268.157286 32.919304,268.476761 C33.4489718,268.795344 33.9590224,269.188887 34.4503473,269.660068 C34.9407805,270.130357 35.3901957,270.682745 35.7977011,271.317234 C36.2052065,271.951722 36.5164087,272.677234 36.7286325,273.494661 L36.9283726,274.263008 Z" id="Fill-25" fill="#8D0B39" mask="url(#mask-2)"></path>
                        <path d="M50.9725964,250.844772 C50.5936253,251.472121 50.3305747,252.019155 50.1843365,252.484982 C50.0380982,252.949916 50.0220477,253.430913 50.1326181,253.929759 L53.7778744,270.223879 C53.9579971,271.027921 53.9419466,271.84178 53.7315061,272.662777 C53.520174,273.485559 53.1420946,274.244089 52.5945928,274.940152 C52.0479827,275.636215 51.3381921,276.252856 50.467896,276.790073 C49.5958166,277.327291 48.5917661,277.722619 47.4557444,277.97695 C46.3741162,278.21968 45.3245892,278.283932 44.3071632,278.169706 C43.2906289,278.05548 42.3766397,277.802934 41.5678708,277.411176 C40.7582101,277.018525 40.073387,276.498262 39.5142931,275.849496 C38.9543076,275.199837 38.5851451,274.472541 38.4050224,273.668499 L34.8186181,257.632278 C34.6046108,256.674745 33.9019538,255.775218 32.7124303,254.93548 L34.1436036,254.615113 L40.60573,253.167659 L44.745878,271.674903 C44.8314809,272.057738 44.9973365,272.302252 45.2416614,272.408446 C45.486878,272.51464 45.8114556,272.52178 46.2145025,272.430756 C46.6906686,272.324562 47.0268383,272.169286 47.2221199,271.964037 C47.4174014,271.75968 47.4717949,271.465192 47.3861921,271.082357 L43.246044,252.575113 L49.5155639,251.170493 L50.9725964,250.844772 Z" id="Fill-26" fill="#8D0B39" mask="url(#mask-2)"></path>
                        <path d="M70.8093715,247.17063 C70.0184365,248.375354 69.7152596,249.478346 69.8989491,250.482283 L73.9035592,272.261916 L68.5551621,273.247113 L61.1353534,262.815092 L62.6690718,271.157139 C62.7823173,271.774672 63.000783,272.287795 63.324469,272.697402 C63.6481549,273.107008 64.1073787,273.527323 64.7021404,273.956562 L63.2335159,274.226063 L57.4410538,275.29336 L56.2221043,275.518241 C56.6055339,274.907848 56.8409419,274.366168 56.9256531,273.891417 C57.0094726,273.416667 56.993422,272.860709 56.8766097,272.223543 L53.4373354,253.512835 C53.3338986,252.953307 53.1555592,252.452677 52.9023173,252.010052 C52.6499671,251.56832 52.2344365,251.130157 51.6584004,250.696457 L52.8782415,250.471575 L58.4201368,249.452467 L65.7570177,260.676929 L64.0797361,251.554042 C63.9914581,251.07126 63.8202523,250.588478 63.5696856,250.105696 C63.3191188,249.622913 62.9053715,249.164226 62.3284437,248.73231 L63.5206422,248.512782 L69.3407469,247.441024 L70.8093715,247.17063 Z" id="Fill-27" fill="#8D0B39" mask="url(#mask-2)"></path>
                        <path d="M91.0196783,250.688782 C90.9724184,250.298808 90.8689816,250.034661 90.7102596,249.895449 C90.5524292,249.757129 90.2858119,249.709832 89.9130827,249.755344 L88.6540069,249.907942 L90.4605845,264.817969 L91.7196603,264.664478 C92.0923895,264.618966 92.3411729,264.525265 92.4660105,264.381591 C92.590848,264.237916 92.6354329,264.02999 92.6024401,263.756919 L91.0196783,250.688782 Z M90.4989274,244.522378 C91.2827289,244.426892 92.0478047,244.459018 92.7950466,244.613402 C93.5431801,244.770462 94.2101693,245.040856 94.7951224,245.424583 C95.3818588,245.80831 95.8705087,246.292877 96.2637469,246.877391 C96.6560935,247.46369 96.898635,248.136551 96.9904798,248.895974 L98.7979491,263.805108 C98.8889022,264.565423 98.8148913,265.277549 98.5732415,265.938808 C98.3315917,266.600961 97.9722379,267.182798 97.4933968,267.686997 C97.0154473,268.189412 96.4313859,268.60705 95.742996,268.937234 C95.0546061,269.26831 94.3189563,269.481591 93.5351549,269.576184 L84.4995917,270.672929 L83.0167,270.853192 C83.9128552,269.972404 84.2829094,268.889937 84.1277542,267.603113 L81.831635,248.659491 C81.6773715,247.393192 81.061209,246.438336 79.9804726,245.799386 L81.4633643,245.619123 L90.4989274,244.522378 Z" id="Fill-28" fill="#8D0B39" mask="url(#mask-2)"></path>
                        <path d="M105.712701,248.01947 L106.088105,253.159627 L110.24787,252.856215 L109.347257,257.557318 L106.424275,257.771491 L106.81573,263.145454 L112.409343,262.73674 L114.049174,267.784089 L100.811044,268.751438 L99.3210184,268.86031 C100.255517,267.984877 100.678181,266.92115 100.586336,265.667344 L99.2024227,246.694273 C99.1114697,245.44136 98.5381087,244.439207 97.4850148,243.689601 L98.9750401,243.579837 L112.21317,242.613381 L111.305423,247.611648 L105.712701,248.01947 Z" id="Fill-29" fill="#8D0B39" mask="url(#mask-2)"></path>
                        <polygon id="Fill-30" fill="#8D0B39" mask="url(#mask-2)" points="130.206451 243.735291 125.199574 267.691459 119.084318 267.670934 114.228137 243.684425 113.274913 242.415449 113.979354 242.417234 120.376386 242.438651 122.528942 256.786472 124.54596 242.451144 131.168592 242.471669"></polygon>
                        <path d="M139.650233,268.523522 L138.187851,268.426252 L131.833619,267.99969 L130.342703,267.899743 C131.390446,267.163522 131.955782,266.168509 132.040493,264.913811 L133.311161,245.933601 C133.394089,244.679795 132.966966,243.608037 132.028901,242.718325 L133.518926,242.818273 L139.873157,243.243942 L141.33554,243.342105 C140.308305,244.06137 139.750995,245.066199 139.665392,246.358378 L138.394724,265.341265 C138.30823,266.633444 138.726435,267.693601 139.650233,268.523522" id="Fill-31" fill="#8D0B39" mask="url(#mask-2)"></path>
                        <path d="M154.367599,264.672509 L153.799588,270.001853 L141.133927,268.650777 L139.648361,268.491932 C140.722855,267.802115 141.327426,266.836551 141.459397,265.593454 L143.472848,246.689097 C143.606603,245.439753 143.22139,244.351932 142.318992,243.426525 L143.803668,243.584478 L150.13739,244.260016 L151.594422,244.416184 C151.066538,244.755291 150.691133,245.130094 150.468209,245.539701 C150.244393,245.951092 150.033953,246.470462 149.834213,247.101381 L148.033877,263.996971 L154.367599,264.672509 Z" id="Fill-32" fill="#8D0B39" mask="url(#mask-2)"></path>
                        <path d="M173.968431,253.768593 L174.001424,253.565129 C174.046009,253.293843 173.942572,253.028803 173.690222,252.767333 C173.43698,252.507648 173.125778,252.347018 172.754832,252.286336 C172.383886,252.225654 172.032557,252.277412 171.700846,252.442504 C171.370027,252.606703 171.181879,252.824446 171.137294,253.095732 L169.478738,263.238619 L168.983846,266.261139 C168.939261,266.532425 169.04894,266.793895 169.311991,267.045549 C169.575041,267.298094 169.893377,267.454262 170.264323,267.514052 C170.634377,267.575627 170.979464,267.528331 171.301366,267.37127 C171.621485,267.21421 171.804283,267.001822 171.848868,266.729643 L171.967464,266.003239 L172.428471,263.185076 L178.32437,264.15064 L179.019893,264.263974 L178.853146,265.281297 L178.22985,269.088226 C178.014951,269.709328 177.64668,270.300982 177.126821,270.862294 C176.60607,271.423606 175.960482,271.904604 175.190947,272.305286 C174.421413,272.706861 173.546658,272.99064 172.567575,273.159302 C171.587601,273.327071 170.51489,273.314577 169.345875,273.123606 C168.252655,272.944236 167.262871,272.618514 166.3792,272.145549 C165.495529,271.672583 164.747395,271.121979 164.137474,270.49463 C163.52577,269.867281 163.048713,269.203344 162.707193,268.500142 C162.364781,267.797832 162.1909,267.11694 162.183767,266.460142 L162.26937,265.937202 L164.636825,251.463554 C164.741153,250.823711 165.040763,250.182084 165.537438,249.53778 C166.033222,248.892583 166.682377,248.322346 167.486687,247.827963 C168.29189,247.332688 169.217471,246.966808 170.265214,246.731218 C171.312066,246.495627 172.44898,246.476887 173.672388,246.677675 C174.691597,246.844551 175.61807,247.145286 176.450915,247.579879 C177.284651,248.015365 177.997117,248.519564 178.588312,249.094262 C179.179507,249.668068 179.651214,250.278462 180.002543,250.922766 C180.353871,251.566178 180.575904,252.185496 180.670424,252.778042 L182.116756,253.014525 C181.792178,253.359879 181.484543,253.760562 181.191175,254.221034 C180.896915,254.679722 180.642781,255.15001 180.431449,255.632793 L180.012352,258.190378 L174.423196,257.274787 L173.421821,257.110588 L173.968431,253.768593 Z" id="Fill-33" fill="#8D0B39" mask="url(#mask-2)"></path>
                        <path d="M192.703604,271.23201 L191.658535,276.489071 L179.165864,274.001092 L177.701698,273.708388 C178.833261,273.117627 179.522543,272.210068 179.765976,270.984819 L183.473651,252.338362 C183.718868,251.106866 183.433525,249.988703 182.617622,248.984766 L184.08268,249.27747 L190.329016,250.521459 L191.766431,250.807916 C191.210012,251.097942 190.802506,251.43705 190.543914,251.826131 C190.284431,252.21432 190.02673,252.713165 189.771705,253.323559 L186.457268,269.988021 L192.703604,271.23201 Z" id="Fill-34" fill="#8D0B39" mask="url(#mask-2)"></path>
                        <path d="M215.231163,256.036152 C214.617676,256.436835 214.142401,256.8161 213.809799,257.17127 C213.475412,257.527333 213.251596,257.953003 213.135676,258.450955 L209.352206,274.71295 C209.165842,275.5161 208.798463,276.243396 208.252744,276.89127 C207.707026,277.540037 207.03647,278.059407 206.241077,278.447596 C205.446575,278.83757 204.540611,279.084761 203.522293,279.190063 C202.504867,279.295365 201.428589,279.216835 200.294351,278.951795 C199.214506,278.700142 198.240773,278.302136 197.374936,277.75778 C196.507315,277.213423 195.794849,276.587858 195.234864,275.883764 C194.67577,275.178777 194.285206,274.413108 194.063174,273.584971 C193.841142,272.756835 193.823308,271.941192 194.009672,271.138042 L197.733398,255.133948 C197.95543,254.178199 197.712889,253.063606 197.007557,251.789276 L198.434271,252.122136 L204.883914,253.624919 L200.586827,272.096467 C200.498549,272.479302 200.540459,272.771113 200.716123,272.972793 C200.890004,273.175365 201.178914,273.322609 201.581069,273.417202 C202.058127,273.527858 202.42729,273.53232 202.691232,273.433265 C202.955174,273.33421 203.132622,273.093265 203.221791,272.71043 L207.518878,254.238882 L213.775914,255.697045 L215.231163,256.036152 Z" id="Fill-35" fill="#8D0B39" mask="url(#mask-2)"></path>
                        <path d="M224.887436,265.075066 C224.98909,264.695801 224.94718,264.40042 224.761707,264.187139 C224.575343,263.974751 224.301592,263.819475 223.939563,263.721312 L222.52444,263.340262 L221.175303,268.343885 L222.590426,268.725827 C222.952455,268.823097 223.268115,268.826667 223.535624,268.736535 C223.803133,268.646404 223.987714,268.411706 224.09026,268.031549 L224.887436,265.075066 Z M222.351451,274.486194 C222.417436,274.240787 222.355018,274.020367 222.164195,273.825827 C221.97248,273.632178 221.696945,273.486719 221.334025,273.387664 L219.918902,273.006614 L218.639317,277.755013 L220.05444,278.136955 C220.416469,278.235118 220.726779,278.257428 220.98448,278.204777 C221.241288,278.152126 221.406252,277.994173 221.47848,277.728241 L222.351451,274.486194 Z M229.865779,269.346929 C229.778393,269.669081 229.646422,269.97874 229.468974,270.276798 C229.290635,270.574856 229.066819,270.850604 228.794852,271.101365 C228.521992,271.353018 228.20009,271.556483 227.828252,271.709974 C227.455523,271.863465 227.045343,271.941102 226.597711,271.941102 C227.348519,272.551496 227.833603,273.185984 228.055635,273.844567 C228.275884,274.504934 228.302635,275.146562 228.134104,275.772126 L226.92318,280.265302 C226.724332,281.005092 226.404213,281.630656 225.965498,282.141102 C225.525891,282.653333 225.006924,283.047769 224.406812,283.322625 C223.8067,283.598373 223.143278,283.749186 222.416545,283.775958 C221.68892,283.803622 220.944353,283.715276 220.182844,283.509134 L210.850346,280.990814 L209.435223,280.608871 C210.577487,280.123412 211.317595,279.256903 211.654657,278.004882 L216.604465,259.63685 C216.946877,258.366982 216.745353,257.235433 216.001678,256.241312 L217.415909,256.622362 L226.749299,259.142467 C227.509917,259.347717 228.197415,259.650236 228.81001,260.049134 C229.422606,260.448031 229.920173,260.912966 230.301819,261.443937 C230.685249,261.973123 230.936707,262.570131 231.060653,263.234068 C231.183707,263.898005 231.145364,264.59853 230.945624,265.337428 L229.865779,269.346929 Z" id="Fill-36" fill="#8D0B39" mask="url(#mask-2)"></path>
                        <polygon id="Fill-37" fill="#8D0B39" mask="url(#mask-2)" points="94.2747282 284.746877 94.5226199 286.502205 92.0749123 286.847559 92.3335043 288.680525 94.5993058 288.360157 94.8436307 290.090499 92.5778292 290.409974 92.857822 292.39643 95.3064213 292.050184 95.5525296 293.793018 90.526035 294.502467 89.2482336 285.456325"></polygon>
                        <path d="M100.757809,290.817528 C100.777427,290.996898 100.838062,291.551071 101.479192,291.480572 C102.080196,291.415428 102.025802,290.913013 101.999051,290.668499 C101.944658,290.17947 101.816253,290.102724 100.832712,289.571753 C98.3965964,288.235848 98.0729105,288.063617 97.9239971,286.712541 C97.8464195,286.004877 97.6431126,284.151386 100.702524,283.817633 C101.460466,283.73464 102.2193,283.769444 102.890748,284.098735 C103.873398,284.61632 103.961676,285.414115 104.055304,286.510861 L101.636131,286.7759 L101.570145,286.170861 C101.551419,286.003092 101.496134,285.50157 100.881755,285.568499 C100.398456,285.622042 100.345845,285.991491 100.370813,286.223512 C100.404697,286.532278 100.620488,286.677738 100.902264,286.842829 C101.11538,286.975795 102.200575,287.572803 102.440441,287.703092 C103.868939,288.549969 104.422683,288.893538 104.580513,290.320467 C104.672358,291.157528 104.781145,292.865559 101.707466,293.200205 C101.590654,293.214483 100.295019,293.35548 99.5370765,293.072593 C98.3627119,292.628184 98.2610585,291.584982 98.1540549,290.490021 L100.690932,290.212488 L100.757809,290.817528 Z" id="Fill-38" fill="#8D0B39" mask="url(#mask-2)"></path>
                        <polygon id="Fill-39" fill="#8D0B39" mask="url(#mask-2)" points="106.409294 283.389108 112.954348 282.920604 113.078294 284.663438 111.111211 284.804436 111.639987 292.175564 109.029099 292.362073 108.502106 284.990945 106.534132 285.131942"></polygon>
                        <polygon id="Fill-40" fill="#8D0B39" mask="url(#mask-2)" points="115.232188 289.846698 117.51939 289.759244 117.599643 291.880451 115.31244 291.96969"></polygon>
                        <path d="M125.112277,284.025291 C125.863977,283.969963 126.322309,283.129333 126.519374,282.721512 L128.87167,282.791118 L128.602378,291.924714 L126.250082,291.854215 L126.44893,285.114898 C125.912129,285.447759 125.607169,285.568231 125.064125,285.668178 L125.112277,284.025291 Z" id="Fill-41" fill="#8D0B39" mask="url(#mask-2)"></path>
                        <path d="M135.530505,285.317648 C135.559931,284.904472 135.513563,284.628724 134.8974,284.584997 C134.359707,284.546625 134.273213,284.838436 134.247353,285.199853 L134.137675,286.761533 C134.117166,287.046205 134.089523,287.432609 134.731545,287.479013 C135.374458,287.525417 135.402992,287.123843 135.421718,286.865942 L135.530505,285.317648 Z M137.570707,290.030352 C137.527906,290.637176 137.480646,291.321638 136.744104,291.839223 C135.842599,292.488882 134.687852,292.404997 134.359707,292.382688 C133.585714,292.326467 132.795671,292.128357 132.198234,291.630404 C131.401057,290.96379 131.447426,290.318593 131.522328,289.259328 L133.948635,289.433344 L133.889783,290.259696 C133.871057,290.530982 133.84609,290.879013 134.463144,290.923633 C135.131917,290.970929 135.158668,290.583633 135.176501,290.339118 L135.319173,288.324997 C134.985678,288.560588 134.583523,288.830982 133.797047,288.774761 C133.19426,288.731034 132.747519,288.516861 132.472877,288.290194 C131.774678,287.734236 131.825505,287.010509 131.862065,286.494709 L131.946776,285.294446 C132.003844,284.493974 132.123332,282.80379 135.022238,283.010824 C135.100707,283.016178 136.110108,283.088462 136.858242,283.5061 C137.98713,284.144157 137.919361,285.099013 137.885476,285.576441 L137.570707,290.030352 Z" id="Fill-42" fill="#8D0B39" mask="url(#mask-2)"></path>
                        <path d="M143.863144,286.108126 L141.976313,289.222562 L143.506465,289.390331 L143.863144,286.108126 Z M143.705313,283.91642 L146.359895,284.206446 L145.7687,289.637522 L146.70944,289.740147 L146.5204,291.476735 L145.578768,291.373218 L145.370111,293.290961 L143.003548,293.03306 L143.213097,291.115318 L140.257122,290.792273 L140.446162,289.055685 L143.705313,283.91642 Z" id="Fill-43" fill="#8D0B39" mask="url(#mask-2)"></path>
                        <path d="M149.681019,284.603916 L155.794492,285.452577 L155.548384,287.222184 C155.084701,287.692472 154.418604,288.370688 153.41277,290.25452 C152.294582,292.372157 152.13051,293.264546 151.966438,294.15515 L149.503571,293.813365 C149.593633,293.160136 149.720254,292.2499 150.733221,290.50885 C151.554474,289.095307 152.473813,287.93074 153.280799,286.906278 L151.351167,286.637669 L151.196012,287.753155 L149.280647,287.486331 L149.681019,284.603916 Z" id="Fill-44" fill="#8D0B39" mask="url(#mask-2)"></path>
                    </g>
                </g>
            </g>
        </g>
    </g>
</svg>