<?xml version="1.0" encoding="utf-8"?>
<!-- Generator: Adobe Illustrator 22.0.1, SVG Export Plug-In . SVG Version: 6.00 Build 0)  -->
<svg version="1.1" id="Layer_1" xmlns="http://www.w3.org/2000/svg" xmlns:xlink="http://www.w3.org/1999/xlink" x="0px" y="0px"
	 width="250.1px" height="226.68px" viewBox="0 0 250.1 226.68" enable-background="new 0 0 250.1 226.68" xml:space="preserve">
<g>
	<path fill="#C1C6C8" d="M226.58,181.17c1.5-2.67,2.33-7.47,1.94-10.58c2.65-2.83,6.71-7.5,9.54-12.21
		c3.93,0.63,11.99,1.9,11.99,1.9s-3.26-27.05-7.61-43.39c1.83-1.63,4.46-4.24,4.46-4.24c-1.43-13.13-6.46-29.29-12.32-41.11
		c15.13-21.82,0.95-50.96-22.7-58.57c-0.04,7.1-3.31,17.17-5.58,20.82c-1.03-2.29-2.6-4.61-2.6-7.21c0-2.42,1.39-4.58,2.61-6.56
		c2.67-4.34,5.77-8.66,9.87-11.77c-17.87-14.2-45.82-8.89-60.28,7.81c-25.71-3.27-51.78,3.91-70,23
		c-14.36-0.57-28.73-0.09-43.1-0.08c-14.25,0.01-28.5,0-42.75,0l21.51,24.75C16.58,74.4,13.07,85.77,9.2,96.9
		c-3.42,9.84-6.6,21.59-1.02,31.28c9.2,15.96,32.15,13.75,47.61,13.75c-3.3,9.28-7.88,18.78-7.33,28.88
		c0.42,7.8,4.24,14.8,10.85,19.03c12.01,7.69,28.27,6.28,41.89,6.09c15.64-0.22,31.29-0.12,46.93-0.12
		c8.61,3.86,17.02,8.16,25.27,12.73c7.61,4.22,14.92,9.03,22.92,12.52c14.95,6.54,32.99,8.08,47.89,0.55
		C240.5,218.16,228.56,203.99,226.58,181.17z"/>
	<path fill="#00529B" d="M221.87,168.35c1.86-1.82,7.75-8.08,10.52-12.84c0,0-1.46-2.92-2.13-4.88c2.46,0.5,12.48,2.07,12.48,2.07
		s-2.65-21.86-7.48-37.89c1.06-0.88,5-4.6,5-4.6c-0.67-6.29-4.25-22.91-13.23-39.43c14.07-14.34,6.8-40.4-10.38-48.71
		c-0.2,8.75-5.57,19.08-12.14,21.33c-0.78-0.6-1.58-1.19-2.38-1.76c-1.07-5.49-5.3-10.3-4.79-16.11c0.54-6.12,4.94-11.67,8.94-16.01
		c-15.88-8.03-37.84-0.63-47.72,13.45c-25.68-5.11-52.55,2.84-70.07,22.6c-12.28-1.02-24.77-0.26-37.09-0.26
		c-12.47,0-24.94,0-37.42,0l15.16,17.43c-5.46,10.01-8.53,21.07-12.35,31.77c-3.41,9.57-8.8,21.07-2.91,30.79
		c4.48,7.37,13.06,9.61,21.14,10.19c9.89,0.7,19.96,0.14,29.87,0.14c-2.44,8.09-6.12,15.78-8.47,23.91
		c-2.56,8.84-2.37,18.77,5.68,24.71c6.7,4.95,15.69,5.2,23.68,5.2c21.08,0.02,42.15,0,63.23,0c14.44,6.27,27.85,14.08,41.64,21.6
		c12.83,6.99,27.74,11.85,42.28,7.55c0,0-10.65-12.17-12.9-39.15C222.35,176.83,222.67,173.41,221.87,168.35z"/>
	<path fill="#FFFFFF" d="M125.37,110.32c6.55,0,19.48,0.12,19,9.46c-0.2,2.92-1.71,7.37-3.98,13.81h-22.27l3.25-9.15h-14.61
		c-6.36,14.57-10.26,25.8-14.29,39.72h37.01l-5,14.11h-39.8c-6.53,0-19.33-0.12-18.75-9.25c0.21-3.14,1.37-7.85,3.75-13.82
		l6.8-18.77c0.1-0.28,0.2-0.55,0.31-0.81h12.09l8.96-25.3L125.37,110.32 M26.19,101.38c-2.39,5.96-3.55,10.66-3.75,13.81
		c-0.59,9.12,12.21,9.25,18.75,9.25h39.79l5-14.11h-37C53,96.41,56.9,85.19,63.27,70.61h14.6l-3.24,9.16H96.9
		c2.27-6.44,3.79-10.89,3.99-13.81c0.47-9.35-12.46-9.46-19.01-9.46H38.5l5.08,5.84c-4.3,3.52-6.15,8.28-10.58,20.28L26.19,101.38z"
		/>
	<path fill="#C1C6C8" d="M222.32,131.73c0,0-0.13-10.08-2.08-21.41l0,0l0,0c-14.22,5.32-23.46,11.1-23.46,11.1s-0.07-3.43,3.11-8.2
		c-4.74-4.98-6.54-12.21-6.82-13.48c-4.3-6.04-8.43-10.18-8.43-10.18c9.47,1.84,17.07,4.76,21.11,6.5
		c-2.34-6.97-8.19-11.97-8.19-11.97c-6.79-1.05-18.73-0.69-18.73-0.69l0,0l0,0c0,0,2.01-7.29,7.33-13.86
		c-5.4,3.28-13.63,6.28-25.41,5.71c-4.12,2.83-7.55,5.45-10.3,7.71c1.37,14.71,5.19,28.02,5.19,28.02
		c3.37,3.84,20.96,18.04,20.96,18.04c-6.62-0.04-14.5-3.26-21.24-6.84c-0.96,7.73-4.49,15.31-7.06,22.6h-17.66
		c1.01,2.51,2.2,5.39,3.48,8.22h11.18c0,0-1.84,5.19-3.95,11.16c8.2,5.08,39,23.33,70.06,30.97c-1.55-6.49-2.3-12.14-2.63-15.19
		c-7.59-2.16-8.82-10.77-8.82-10.77c5.83,3.27,11.59,1.33,11.59,1.33c-1.71-4.59-4.06-7.34-4.06-7.34
		c-7.92-3.75-20.05-5.49-25.76-5.84l-5.92,3.78c0,0,1.5-12.09,13.33-17.47c9.26,2.8,26.11,13.78,28.19,15.75
		c2.78-2.61,4.29-5.37,4.29-5.37c-2.26-5.01-7.84-17.74-7.84-17.74C219.21,134.23,222.32,131.73,222.32,131.73z M177.69,144.95
		c0,0-1.02-1.68-0.85-4.15c0,0-3.69-1.56-4.51-7.43c0,0,2.87,3.26,7.96,3.98c2.53,0.37,4.43,1,5.86,1.65
		C181.59,141.21,177.69,144.95,177.69,144.95z M190.03,16.69c-7.41,2.26-22.56,16.04-10.3,39.24c-4.87-0.06-9.23-2.91-10.2-3.82
		c-1.85-1.74-8.31-9.85-3.06-19.96C174.15,17.36,190.03,16.69,190.03,16.69z M220.6,60.43c-0.95-1.33-1.98-2.63-3.01-3.93
		c3.37-3.32,7.55-10.2,2.85-20.31l0,0C227.7,45.59,223.77,56.37,220.6,60.43z M135.12,99.75c-7.46-1.05-15.2-0.6-22.71-0.6
		c-3.02-10.5-2.74-19.46-2.74-19.46c3.76,2.67,7.5,5.38,11.2,8.13C125.71,91.44,131.29,95.02,135.12,99.75"/>
	<path fill="#FFFFFF" d="M213.76,136.25c5.45-2.02,8.55-4.53,8.55-4.53s-0.13-10.08-2.08-21.41l0,0l0,0
		c0.66-6.68-1.8-15.25-1.8-15.25l-2.21,2.76C210.15,85.49,200,77.75,200,77.75c-13.3,0.24-21.18,5.64-21.18,5.64l0,0l0,0
		c0,0,2.01-7.29,7.33-13.86c4.43-2.69,6.97-5.57,7.93-6.81c7.02,3.02,16.09,7.51,23.43,13.17c4.91,7.3,10.11,17.19,13.02,29.3
		c0,0-3.27,2.61-7.43,5.69c0,0,6.08,14.33,8.05,30.63C231.16,141.51,220.35,138.76,213.76,136.25z M207.63,105.52
		c-3.93-2.93-8.44-4.89-10.8-6.23c3.34,8.5,8.22,11.07,9.68,11.66l-1.3-3.87L207.63,105.52z M201.62,155.58
		c-3-2.18-7.37-4.32-8.62-4.9c-1.47,0.75-4.32,2.41-4.32,2.41C194.25,153.84,201.62,155.58,201.62,155.58 M187.57,35.46
		c-3.98-9.45,2.47-18.77,2.47-18.77s-15.88,0.67-23.55,15.47c-5.25,10.11,1.21,18.22,3.06,19.96c1.64,1.54,12.99,8.72,20.13-1.72
		C193.49,44.82,188.44,37.57,187.57,35.46 M220.45,36.19c0,0-1.16,8.77-8.24,14.11c3.1,3.2,5.89,6.61,8.4,10.14
		C223.77,56.37,227.7,45.59,220.45,36.19"/>
</g>
</svg>
