<svg width="256" height="182" viewBox="0 0 256 182" fill="none" xmlns="http://www.w3.org/2000/svg">
<g clip-path="url(#clip0)">
<path d="M195.177 121.251C188.581 109.881 184.149 106.053 184.149 106.053C184.483 84.9813 168.917 73.1811 159.981 67.0614C138.232 52.1794 111.532 66.1834 95.4734 34.4877C87.0043 40.1596 88.2707 50.9238 88.2707 50.9238C64.3584 41.6083 54.9834 17.5599 54.9834 17.5599C46.9716 22.4328 47.297 34.8301 47.297 34.8301C36.2423 23.5303 30.7105 0 30.7105 0C13.3501 26.3399 27.9138 52.1267 27.9138 52.1267C26.9552 72.6718 41.6773 85.6837 62.0454 93.5681C82.4136 101.453 92.8966 110.294 92.8966 110.294C90.4518 116.027 92.5449 124.491 92.5449 124.491C92.5449 124.491 66.3547 113.464 43.2955 113.464C16.9734 113.464 0 127.722 0 127.722C60.0842 125.009 81.1383 158.452 81.1383 158.452C72.2119 175.845 89.9329 181.982 89.9329 181.982H108.173V168.769C112.893 166.516 117.762 164.589 122.745 163L120.045 154.484C125.507 157.637 131.614 159.513 137.907 159.969C144.2 160.425 150.515 159.45 156.376 157.118C185.943 168.461 234.181 166.301 256.018 151.121C211.227 147.635 202.661 134.158 195.177 121.251Z" fill="white"/>
<path d="M180.376 107.994C180.372 107.944 180.372 107.894 180.376 107.844C182.381 86.5266 161.089 64.524 132.507 62.2851C103.925 60.0462 94.3653 40.502 94.3653 40.502C89.6866 47.7455 93.011 55.9636 93.011 55.9636C68.3247 52.3286 53.7082 23.9606 53.7082 23.9606C48.1237 32.3806 52.7144 44.2862 52.7144 44.2862C36.4621 34.2419 29.664 9.85992 29.664 9.85992C20.0339 28.0432 31.6603 51.3716 31.6603 51.3716C30.0421 66.5522 39.6809 81.0743 63.6988 90.1176C87.7167 99.161 97.118 109.047 97.118 109.047C97.118 109.047 93.3979 116.949 97.461 127.582L94.8842 129.847C94.8842 129.847 44.6762 106.65 14.7133 123.859C14.7133 123.859 64.0946 124.333 85.6236 158.101C82.1058 164.984 79.6345 171.824 89.027 176.96C89.027 176.96 96.7926 167.522 117.864 160.401L114.865 151.016L116.255 147.943C141.882 163.193 153.456 152.403 156.305 153.096C200.647 170.007 243.257 153.43 243.257 153.43C188.476 146.134 196.998 118.846 180.376 107.994Z" fill="#003595"/>
<path d="M139.156 134.922C137.349 133.329 135.449 131.846 133.466 130.479C131.962 131.155 131.549 130.532 131.971 129.522C130.214 128.378 128.242 127.604 126.175 127.248C125.831 127.196 125.485 127.164 125.137 127.152C125.014 129.03 123.915 128.644 123.079 127.257C122.652 127.292 122.237 127.419 121.864 127.629C121.49 127.839 121.167 128.128 120.916 128.475C120.665 128.823 120.493 129.22 120.411 129.64C120.329 130.061 120.339 130.494 120.441 130.909C121.28 130.874 122.119 130.948 122.939 131.129C123.994 129.469 124.847 130.181 124.961 131.691C126.378 132.194 127.73 132.863 128.989 133.684L129.719 134.132C131.346 133.254 131.804 133.965 131.32 135.124C132.815 136.002 134.521 136.985 136.289 137.898C137.67 136.889 138.224 137.556 137.977 138.776C141.381 140.427 144.811 141.735 147.176 141.761C144.838 140.018 142.606 138.135 140.493 136.125C138.707 136.52 138.435 135.835 139.156 134.922Z" fill="white"/>
<path d="M145.734 112.111C140.238 108.968 131.258 97.5542 124.232 103.402C118.884 107.853 128.567 116.572 131.892 117.028C131.892 117.028 131.549 110.18 136.843 111.207C142.137 112.234 148.513 120.523 152.471 118.933C155.778 117.599 156.27 113.191 155.162 109.477C153.297 111.409 149.595 114.324 145.734 112.111Z" fill="white"/>
<path d="M166.217 97.2206C166.217 97.2206 167.096 109.197 160.843 109.372C160.843 109.372 161.072 118.056 164.414 114.71C167.756 111.365 167.052 107.923 171.194 108.134C171.186 108.134 172.944 101.848 166.217 97.2206Z" fill="white"/>
<path d="M143.272 117.336C143.26 117.083 143.174 116.84 143.025 116.636C142.875 116.432 142.67 116.276 142.432 116.188C142.195 116.099 141.938 116.083 141.691 116.139C141.444 116.196 141.22 116.323 141.045 116.506C140.871 116.689 140.753 116.918 140.708 117.167C140.663 117.415 140.692 117.672 140.792 117.904C140.891 118.136 141.056 118.334 141.267 118.474C141.479 118.613 141.726 118.687 141.979 118.688C142.153 118.685 142.325 118.648 142.485 118.579C142.645 118.509 142.79 118.409 142.91 118.283C143.03 118.157 143.124 118.008 143.186 117.846C143.249 117.683 143.278 117.51 143.272 117.336Z" fill="white"/>
<path d="M168.433 112.638C168.2 112.638 167.976 112.731 167.811 112.895C167.646 113.06 167.553 113.283 167.553 113.516C167.553 113.749 167.646 113.972 167.811 114.137C167.976 114.302 168.2 114.394 168.433 114.394C168.666 114.394 168.89 114.302 169.055 114.137C169.22 113.972 169.312 113.749 169.312 113.516C169.312 113.283 169.22 113.06 169.055 112.895C168.89 112.731 168.666 112.638 168.433 112.638Z" fill="white"/>
<path d="M153.632 82.2508C156.053 81.1782 158.76 80.9314 161.336 81.5484C151.38 69.6427 124.504 78.4842 103.195 60.0814C111.471 81.4079 142.023 75.2619 153.632 82.2508Z" fill="#FFC629"/>
<path d="M154.133 93.2345C148.672 88.5021 143.694 89.3538 143.694 89.3538C145.809 90.3572 147.648 91.8588 149.053 93.7294C150.458 95.6 151.386 97.7834 151.758 100.092C138.364 86.4125 125.955 93.656 125.955 93.656C135.937 94.534 140.22 101.892 145.444 106.598C150.668 111.304 155.857 106.343 155.857 106.343C164.722 107.844 161.934 93.0238 161.934 93.0238C160.684 92.5433 159.351 92.3146 158.012 92.3507C156.673 92.3869 155.355 92.6873 154.133 93.2345Z" fill="#FFC629"/>
<path d="M39.162 56.982C39.6457 77.1759 85.8698 87.0007 97.5665 98.7132C98.6813 97.7376 99.8756 96.8565 101.137 96.0792C82.5191 82.6371 47.7455 74.261 39.162 56.982Z" fill="#FFC629"/>
<path d="M107.786 76.1311C105.051 74.2346 100.434 68.4838 100.434 68.4838C93.7463 66.8287 87.5392 63.6356 82.308 59.1594C87.3385 71.6884 107.786 76.1311 107.786 76.1311Z" fill="#FFC629"/>
<path d="M99.774 87.2993C99.774 87.2993 106.572 85.8945 108.665 83.3658C108.665 83.3658 74.006 70.5207 59.0817 46.7446C59.0817 46.7446 69.5823 74.8756 99.774 87.2993Z" fill="#FFC629"/>
<path d="M62.0542 69.6339L60.0491 64.9718C41.3343 54.0407 34.2987 32.7581 34.2987 32.7581C39.3555 62.7856 62.0542 69.6339 62.0542 69.6339Z" fill="#FFC629"/>
<path d="M146.869 137.846C166.612 156.951 211.394 152.306 211.394 152.306C203.426 149.76 188.669 137.143 183.744 124.649C178.652 111.734 171.142 118.178 168.793 119.759C166.445 121.339 160.412 119.302 160.412 119.302C148.1 125.562 133.202 121.936 123.282 115.72C115.164 110.654 103.608 122.744 112.456 134.931L111.726 135.975C108.783 133.607 106.585 130.443 105.394 126.862C105.007 123.289 105.378 119.675 106.484 116.256C106.484 116.256 104.62 114.64 107.364 112.524C107.364 112.524 107.364 107.16 116.352 100.987C116.592 100.052 116.886 99.1319 117.231 98.2303C116.266 98.2217 115.302 98.2863 114.346 98.4235H114.408C114.408 98.4235 106.247 100.478 103.459 112.471C101.621 120.373 103.265 125.527 104.611 128.144C102.421 132.92 94.1367 138.759 87.0922 140.436C86.2345 138.708 84.8974 137.264 83.2402 136.274C85.1677 135.666 87.0511 134.926 88.8775 134.061C82.1321 131.313 54.6756 120.891 28.9956 121.436C28.9956 121.436 75.0525 122.735 91.1905 154.501C91.1905 154.501 95.9044 142.262 104.092 139.145C104.092 139.145 93.4331 153.193 88.9567 167.487C88.9567 167.487 102.887 159.936 110.301 156.319C110.301 156.319 109.061 152.412 108.313 150.076L111.541 143.447C112.669 141.609 113.921 139.849 115.288 138.179C115.587 138.469 115.903 138.75 116.229 139.057C133.422 153.904 153.544 145.686 153.544 145.686C143.324 147.635 124.39 130.971 115.587 132.938C116.149 125.071 125.911 117.52 146.869 137.846ZM166.322 123.525C181.273 143.93 203.602 151.472 203.602 151.472C175.231 142.121 162.206 122.832 162.206 122.832C165.284 124.008 166.34 123.499 166.34 123.499L166.322 123.525ZM161.819 126.01C163.129 128.399 164.846 130.541 166.894 132.34C166.894 132.34 159.322 130.426 157.501 126.809C157.528 126.809 160.685 128.188 161.819 126.01Z" fill="#FFC629"/>
<path d="M161.819 126.01C160.658 128.223 157.501 126.809 157.501 126.809C159.322 130.426 166.894 132.34 166.894 132.34C164.846 130.541 163.129 128.399 161.819 126.01Z" fill="#003595"/>
<path d="M166.34 123.499C166.34 123.499 165.284 124.008 162.224 122.805C162.224 122.805 175.249 142.121 203.62 151.446C203.62 151.446 181.29 143.904 166.34 123.499Z" fill="#FFE7AF"/>
<path d="M100.521 175.977H99.299V179.392H98.3316V175.977H97.0916V175.16H100.521V175.977ZM105.675 179.392H104.796V175.977L103.626 179.392H103.107L101.937 175.977V179.392H101.058V175.16H102.474L103.353 177.663L104.233 175.16H105.649L105.675 179.392Z" fill="#003595"/>
</g>
<defs>
<clipPath id="clip0">
<rect width="256" height="182" fill="white"/>
</clipPath>
</defs>
</svg>
