<?xml version="1.0" encoding="UTF-8"?>
<svg id="Layer_2" data-name="Layer 2" xmlns="http://www.w3.org/2000/svg" viewBox="0 0 430.26 656.8">
  <defs>
    <style>
      .cls-1 {
        fill: #ff671f;
      }

      .cls-1, .cls-2 {
        stroke-width: 0px;
      }

      .cls-2 {
        fill: #00263a;
      }
    </style>
  </defs>
  <g id="Layer_1-2" data-name="Layer 1">
    <g>
      <polygon class="cls-2" points="5.72 0 430.26 0 430.26 200.75 335.6 135.96 231.76 135.96 231.76 271.9 340.19 229.46 340.19 446.85 231.13 396.38 231.13 565.62 313.18 656.8 0 656.8 74.95 565.62 74.95 388.36 21.21 337.31 75.74 284.54 75.74 111.85 5.72 0"/>
      <polygon class="cls-1" points="73.01 37.8 114.48 102.48 114.48 300.68 75.97 337.93 114.17 373.53 114.17 579.22 75.97 622.64 236.61 622.64 198.27 578.95 198.27 358.83 237.27 358.83 308.13 392.81 308.13 282.44 237.27 309.75 198.08 309.75 198.08 101.11 350.93 101.11 397.91 135.15 397.91 37.84 73.01 37.8"/>
      <polygon class="cls-2" points="301.88 603.84 294.37 603.84 294.37 599.31 316.36 599.31 316.36 603.84 308.68 603.84 308.68 622.64 301.88 622.64 301.88 603.84"/>
      <polygon class="cls-2" points="319.9 622.65 319.9 599.31 330.67 599.31 334.69 615.11 334.76 615.11 338.63 599.31 349.2 599.31 349.2 622.65 343.25 622.65 343.25 603.13 343.18 603.06 337.43 622.65 331.32 622.65 325.91 602.89 325.86 602.96 325.86 622.65 319.9 622.65"/>
    </g>
  </g>
</svg>