<svg id="Layer_1" xmlns="http://www.w3.org/2000/svg" viewBox="0 0 200 66" enable-background="new 0 0 200 66"><style>.st0,.st2{fill-rule:evenodd;clip-rule:evenodd;fill:#f16522}.st2{fill:#fff}</style><g id="Group-32"><path id="Fill-1" class="st0" d="M45.342 12.253c-.369.986-1.558 1.808-1.181 2.956 1.344 1.554 4.244 1.051 4.252 3.839-1.638.006-3.129-1.136-4.765-1.457-1.489-.487-3.347-.318-4.759.426l.072-.329c1.483-2.053 3.037-4.194 4.071-6.576l2.31 1.141z"/><path id="Fill-3" class="st0" d="M15.398 14.286c-.793 2.39-1.438 5.109-1.284 7.906.307 5.35 2.136 10.446 5.923 13.805 4.002 2.784 7.868 7.542 7.737 12.812-.143.084-.143.575-.362.329-1.025-2.63-3.285-4.844-5.683-5.575-3.344-1.056-6.836-2.771-8.808-6.468-3.213-5.422-2.798-12.666-3.399-19.085a32.815 32.815 0 0 1 5.876-3.724"/><g id="Group-7" transform="translate(0 18.254)"><defs><filter id="Adobe_OpacityMaskFilter" filterUnits="userSpaceOnUse" x="0" y=".4" width="26.379" height="42.379"><feColorMatrix values="1 0 0 0 0 0 1 0 0 0 0 0 1 0 0 0 0 0 1 0"/></filter></defs><mask maskUnits="userSpaceOnUse" x="0" y=".4" width="26.379" height="42.379" id="mask-2_1_"><g filter="url(#Adobe_OpacityMaskFilter)"><path id="path-1_1_" class="st2" d="M0 .4h26.379v42.379H0z"/></g></mask><path id="Fill-5" d="M6.648.4C5.624 2.136 4.456 4.2 5.269 6.424c1.852 4.856 3.26 9.961 4.817 14.902 1.484 4.858 6.33 4.756 9.204 7.633 2.875 4.275 4.725 9.051 7.09 13.658l-.148.162c-2.952-4.929-7.149-9.039-11.927-11.082-2.427-.897-5.07-1.383-7.641-1.207.292-.744.656-1.654.728-2.475-.67-2.72-2.145-5.022-2.961-7.655C3.1 16.736 1.767 13.03.14 9.493c-.595-2.884.792-5.361 2.77-6.851A17.61 17.61 0 0 1 6.648.4" mask="url(#mask-2_1_)" fill-rule="evenodd" clip-rule="evenodd" fill="#f16522"/></g><path id="Fill-8" class="st0" d="M53.968 30.159c-2.461-2.057-4.92-3.873-7.529-5.371-.819.003-1.337 1.038-2.229.88-.521.004-.968-.075-1.341-.471-.371-.554-.449-1.427-.154-1.984-.449-.236-.896-.474-1.414-.391-.373.955.005 2.143.38 3.015.673 1.268 2.233.47 2.978 1.261-.072.636-.739.478-1.111.718-1.412.402-2.978.011-3.945-1.176-1.345-1.584-.683-4.129-1.508-5.871 3.49-1.919 8.03-.663 10.716 2.028 2.241 2.132 3.955 4.667 5.157 7.362"/><g id="Group-12" transform="translate(17.46)"><defs><filter id="Adobe_OpacityMaskFilter_1_" filterUnits="userSpaceOnUse" x=".604" y=".25" width="50.638" height="65.623"><feColorMatrix values="1 0 0 0 0 0 1 0 0 0 0 0 1 0 0 0 0 0 1 0"/></filter></defs><mask maskUnits="userSpaceOnUse" x=".604" y=".25" width="50.638" height="65.623" id="mask-4_1_"><g filter="url(#Adobe_OpacityMaskFilter_1_)"><path id="path-3_1_" class="st2" d="M.604.25h50.638v65.623H.604z"/></g></mask><path id="Fill-10" d="M41.06 46.752c-2.112.906-4.367 1.486-6.552 2.147-.653.33-1.601.413-1.744 1.315.66 1.056 1.825 1.543 2.775 2.274l4.439-1.733c.656-.246 1.234-.902 1.378-1.718.147-.816.071-1.716-.296-2.285M14.768.552c-.283 2.777.089 5.633.389 8.246 2.552.317 4.884 1.126 7.361 1.685-.216.411-.724.493-1.015.823-2.976 3.603-2.74 8.991-2.144 13.724.447 3.592 4.021 5.049 6.359 6.837.875.568.66 1.713.735 2.692-.143.652-.358 1.388-.867 1.799-1.9-2.28-3.947-4.312-6.645-4.794l-3.204.26c-.298-2.449-.595-4.816-1.116-7.182-.59-2.447-1.616-4.73-2.572-7.013 1.384-.168 2.918-.501 3.64-2.055.94-1.803.932-4.25.054-6.043-1.023-1.059-2.845-.646-4.229-.721-.005-1.795.281-3.673.348-5.552-1.968-.238-3.715.422-5.095 2.06-1.377 2.211-1.514 5.232-.996 7.925.807 1.548 2.486 2.275 2.927 4.154 1.324 4.076 1.192 8.405 1.424 12.896 1.034 5.466 6.431 6.671 10.368 7.881 1.313.241 2.696.317 3.936.719-2.183.827-4.071 2.874-4.646 5.407-.214 1.631-.648 3.022-.498 4.82 3.281.314 7.07.872 9.762-1.098-.367-.572-1.094-.651-1.606-1.137a6.39 6.39 0 0 1-2.2-4.566c-.231-3.918 2.892-7.278 5.876-8.922.217.243.074.982.296 1.306.878 1.631 2.408 2.442 3.797 3.169-1.674 1.068-3.718-.474-5.392.183-.289.412-.799.659-.578 1.309 2.117 1.383 4.593.801 7.141.955-1.309.496-2.837.663-4.294 1.077-.946.331-1.964.416-2.62 1.315-.141.654.37.898.808 1.06 2.041-.008 3.855-1.076 5.823-1.001-1.236.902-2.987.909-3.926 2.463-.073.408.364.652.583.652 3.425.232 6.627-1.006 9.39-3.138.652-.655 1.087-1.72.646-2.699-.88-1.957-2.845-2.03-4.237-3.33-.875-.814-1.752-1.708-2.265-2.767l9.181-.117c-.516-1.796-1.323-3.506-2.204-5.217-2.856-5.951-8.045-10.913-12.936-14.569-.146-.245-.513-.324-.44-.651 4.521.883 8.025 4.053 11.532 7.551 3.727 4.15 7.094 8.465 9.803 13.353.222 1.635-1.378 2.538-2.32 3.604-.8.655-1.742 1.558-1.96 2.619.153 2.122-.425 4.003-1.585 5.56-.505 1.798-.716 3.758-1.293 5.638-1.019 1.065-2.549.826-3.711 1.482-1.455.66-2.984 1.807-3.561 3.525-.287 1.227-.138 2.778.229 4.001-4.239-4.965-9.568-9.355-16.049-7.862-2.622.501-5.607 1.327-6.909 4.356-1.012 2.943.017 6.123 1.192 8.57l-.072.079c-3.502-1.864-6.211-6.017-6.225-10.508-.01-3.838 4.068-3.853 5.663-6.718 1.088-1.636 1.448-4.007 1.002-6.046-.881-2.448-3.216-3.335-4.969-4.961-2.924-3.094-6.938-6.018-7.898-10.588-.448-3.344 3.994-3.689 3.691-7.035-.076-1.306.213-3.022-1.03-3.591-1.238-.403-2.473.745-3.641-.067-1.758-2.606-1.11-5.711-.756-8.815C1.593 4.521 3.989 1.98 6.611.992c2.473-1.073 5.46-.757 8.157-.44" mask="url(#mask-4_1_)" fill-rule="evenodd" clip-rule="evenodd" fill="#f16522"/></g><path id="Fill-13" class="st0" d="M82.44 40.476v7.797c0 2.155.584 4.153 2.877 4.153 2.292 0 2.877-1.998 2.877-4.153v-7.797h1.487v8.359c0 2.908-1.629 5.133-4.365 5.133-2.735 0-4.365-2.225-4.365-5.133v-8.359h1.489z"/><path id="Fill-15" class="st0" d="M96.032 39.683l8.846 10.318V40.31h1.471v13.658L97.503 43.65v9.779h-1.471z"/><path id="Fill-17" class="st0" d="M114.878 51.635h3.376v1.54h-4.762V39.683h1.386z"/><defs><filter id="Adobe_OpacityMaskFilter_2_" filterUnits="userSpaceOnUse" x="124.603" y="39.683" width="1.587" height="13.492"><feColorMatrix values="1 0 0 0 0 0 1 0 0 0 0 0 1 0 0 0 0 0 1 0"/></filter></defs><mask maskUnits="userSpaceOnUse" x="124.603" y="39.683" width="1.587" height="13.492" id="mask-6_1_"><g filter="url(#Adobe_OpacityMaskFilter_2_)"><path id="path-5_1_" class="st2" d="M0 65.873h200V0H0z"/></g></mask><path id="Fill-19" mask="url(#mask-6_1_)" fill-rule="evenodd" clip-rule="evenodd" fill="#f16522" d="M124.603 53.175h1.587V39.683h-1.587z"/><defs><filter id="Adobe_OpacityMaskFilter_3_" filterUnits="userSpaceOnUse" x="131.746" y="39.683" width="12.698" height="14.286"><feColorMatrix values="1 0 0 0 0 0 1 0 0 0 0 0 1 0 0 0 0 0 1 0"/></filter></defs><mask maskUnits="userSpaceOnUse" x="131.746" y="39.683" width="12.698" height="14.286" id="mask-6_2_"><g filter="url(#Adobe_OpacityMaskFilter_3_)"><path id="path-5_2_" class="st2" d="M0 65.873h200V0H0z"/></g></mask><path id="Fill-21" mask="url(#mask-6_2_)" fill-rule="evenodd" clip-rule="evenodd" fill="#f16522" d="M134.62 44.814h-.03l-1.353 8.87h-1.491l2.366-14.001 3.983 10.58 3.983-10.58 2.366 14.001h-1.49l-1.355-8.87h-.029l-3.475 9.154z"/><defs><filter id="Adobe_OpacityMaskFilter_4_" filterUnits="userSpaceOnUse" x="150.794" y="39.683" width="1.587" height="13.492"><feColorMatrix values="1 0 0 0 0 0 1 0 0 0 0 0 1 0 0 0 0 0 1 0"/></filter></defs><mask maskUnits="userSpaceOnUse" x="150.794" y="39.683" width="1.587" height="13.492" id="mask-6_3_"><g filter="url(#Adobe_OpacityMaskFilter_4_)"><path id="path-5_3_" class="st2" d="M0 65.873h200V0H0z"/></g></mask><path id="Fill-22" mask="url(#mask-6_3_)" fill-rule="evenodd" clip-rule="evenodd" fill="#f16522" d="M150.794 53.175h1.587V39.683h-1.587z"/><defs><filter id="Adobe_OpacityMaskFilter_5_" filterUnits="userSpaceOnUse" x="157.937" y="39.683" width="7.143" height="13.492"><feColorMatrix values="1 0 0 0 0 0 1 0 0 0 0 0 1 0 0 0 0 0 1 0"/></filter></defs><mask maskUnits="userSpaceOnUse" x="157.937" y="39.683" width="7.143" height="13.492" id="mask-6_4_"><g filter="url(#Adobe_OpacityMaskFilter_5_)"><path id="path-5_4_" class="st2" d="M0 65.873h200V0H0z"/></g></mask><path id="Fill-23" mask="url(#mask-6_4_)" fill-rule="evenodd" clip-rule="evenodd" fill="#f16522" d="M162.25 53.175h-1.486V41.221h-2.827v-1.538h7.142v1.538h-2.829z"/><defs><filter id="Adobe_OpacityMaskFilter_6_" filterUnits="userSpaceOnUse" x="171.429" y="39.683" width="6.349" height="13.492"><feColorMatrix values="1 0 0 0 0 0 1 0 0 0 0 0 1 0 0 0 0 0 1 0"/></filter></defs><mask maskUnits="userSpaceOnUse" x="171.429" y="39.683" width="6.349" height="13.492" id="mask-6_5_"><g filter="url(#Adobe_OpacityMaskFilter_6_)"><path id="path-5_5_" class="st2" d="M0 65.873h200V0H0z"/></g></mask><path id="Fill-24" mask="url(#mask-6_5_)" fill-rule="evenodd" clip-rule="evenodd" fill="#f16522" d="M171.429 39.683h6.349v1.538h-4.876v3.776h4.734v1.539h-4.734v5.098h4.876v1.541h-6.349z"/><defs><filter id="Adobe_OpacityMaskFilter_7_" filterUnits="userSpaceOnUse" x="184.127" y="39.683" width="9.524" height="13.492"><feColorMatrix values="1 0 0 0 0 0 1 0 0 0 0 0 1 0 0 0 0 0 1 0"/></filter></defs><mask maskUnits="userSpaceOnUse" x="184.127" y="39.683" width="9.524" height="13.492" id="mask-6_6_"><g filter="url(#Adobe_OpacityMaskFilter_7_)"><path id="path-5_6_" class="st2" d="M0 65.873h200V0H0z"/></g></mask><path id="Fill-25" d="M185.671 51.635h.544c3.158 0 5.889-1.288 5.889-5.207 0-3.936-2.731-5.207-5.889-5.207h-.544v10.414zm-1.544-11.952h2.564c3.8 0 6.96 2.182 6.96 6.674 0 4.6-3.093 6.819-7.007 6.819h-2.517V39.683z" mask="url(#mask-6_6_)" fill-rule="evenodd" clip-rule="evenodd" fill="#f16522"/><defs><filter id="Adobe_OpacityMaskFilter_8_" filterUnits="userSpaceOnUse" x="74.603" y="11.905" width="19.048" height="22.222"><feColorMatrix values="1 0 0 0 0 0 1 0 0 0 0 0 1 0 0 0 0 0 1 0"/></filter></defs><mask maskUnits="userSpaceOnUse" x="74.603" y="11.905" width="19.048" height="22.222" id="mask-6_7_"><g filter="url(#Adobe_OpacityMaskFilter_8_)"><path id="path-5_7_" class="st2" d="M0 65.873h200V0H0z"/></g></mask><path id="Fill-26" d="M86.222 16.399v16.096c0 .323.066.566.198.731.131.167.365.301.703.405v.497H81.13v-.498c.338-.104.572-.239.704-.405.131-.165.196-.408.196-.731V16.399h-5.964c-.281 0-.496.072-.647.214-.15.141-.273.403-.365.782h-.451v-5.489h.451c.103.378.226.638.373.78.144.144.359.215.639.215h16.108c.291 0 .512-.071.661-.215.15-.142.272-.402.366-.78h.45v5.489h-.45c-.094-.378-.216-.64-.366-.782-.15-.142-.371-.214-.661-.214h-5.952z" mask="url(#mask-6_7_)" fill-rule="evenodd" clip-rule="evenodd" fill="#002a5b"/><defs><filter id="Adobe_OpacityMaskFilter_9_" filterUnits="userSpaceOnUse" x="97.619" y="12.698" width="6.349" height="21.429"><feColorMatrix values="1 0 0 0 0 0 1 0 0 0 0 0 1 0 0 0 0 0 1 0"/></filter></defs><mask maskUnits="userSpaceOnUse" x="97.619" y="12.698" width="6.349" height="21.429" id="mask-6_8_"><g filter="url(#Adobe_OpacityMaskFilter_9_)"><path id="path-5_8_" class="st2" d="M0 65.873h200V0H0z"/></g></mask><path id="Fill-27" d="M98.572 32.479V14.331c0-.315-.069-.556-.208-.722-.139-.168-.387-.303-.745-.408v-.502h6.349v.501c-.359.094-.607.228-.746.4-.138.173-.208.416-.208.73v18.147c0 .325.072.573.216.747.144.172.39.305.738.4v.502h-6.349v-.502c.358-.105.606-.24.745-.408.139-.167.208-.412.208-.737" mask="url(#mask-6_8_)" fill-rule="evenodd" clip-rule="evenodd" fill="#002a5b"/><defs><filter id="Adobe_OpacityMaskFilter_10_" filterUnits="userSpaceOnUse" x="107.937" y="11.905" width="22.222" height="22.222"><feColorMatrix values="1 0 0 0 0 0 1 0 0 0 0 0 1 0 0 0 0 0 1 0"/></filter></defs><mask maskUnits="userSpaceOnUse" x="107.937" y="11.905" width="22.222" height="22.222" id="mask-6_9_"><g filter="url(#Adobe_OpacityMaskFilter_10_)"><path id="path-5_9_" class="st2" d="M0 65.873h200V0H0z"/></g></mask><path id="Fill-28" d="M125.731 26.027h-4.813c-.295 0-.517.073-.665.221-.147.146-.269.408-.364.785h-.456v-5h.456c.095.386.216.651.363.793.148.142.369.213.665.213h9.241v.503c-.338.105-.574.241-.71.409-.136.167-.204.414-.204.739v4.404c0 .325.065.571.196.739s.37.304.717.408v.393c-3.701 2.328-7.29 3.492-10.762 3.492-3.149 0-5.718-.823-7.707-2.469-2.503-2.076-3.753-4.959-3.753-8.65 0-3.439 1.113-6.175 3.342-8.209 2.113-1.929 4.923-2.894 8.426-2.894 1.114 0 2.163.113 3.149.338.985.226 2.106.605 3.362 1.14.648.283 1.11.424 1.386.424.2 0 .434-.12.7-.361l.4.235-2.292 5.143-.414-.235c-.01-.344-.053-.592-.129-.743-.077-.152-.248-.337-.514-.557-.581-.48-1.432-.889-2.555-1.228-1.124-.34-2.185-.51-3.184-.51-2.036 0-3.725.629-5.068 1.886-1.513 1.425-2.269 3.305-2.269 5.64 0 2.263.737 4.091 2.213 5.483 1.351 1.278 3.132 1.917 5.342 1.917 1.075 0 2.137-.136 3.184-.408 1.047-.273 1.952-.644 2.713-1.117v-2.924z" mask="url(#mask-6_9_)" fill-rule="evenodd" clip-rule="evenodd" fill="#002a5b"/><defs><filter id="Adobe_OpacityMaskFilter_11_" filterUnits="userSpaceOnUse" x="134.127" y="11.111" width="19.048" height="23.81"><feColorMatrix values="1 0 0 0 0 0 1 0 0 0 0 0 1 0 0 0 0 0 1 0"/></filter></defs><mask maskUnits="userSpaceOnUse" x="134.127" y="11.111" width="19.048" height="23.81" id="mask-6_10_"><g filter="url(#Adobe_OpacityMaskFilter_11_)"><path id="path-5_10_" class="st2" d="M0 65.873h200V0H0z"/></g></mask><path id="Fill-29" d="M139.258 24.347v5.965h12.445c.281 0 .498-.074.651-.223.151-.149.274-.415.368-.798h.453v5.63h-.453c-.094-.383-.217-.648-.368-.798-.153-.149-.369-.223-.651-.223h-17.576v-.51c.34-.106.575-.244.709-.416.131-.17.198-.419.198-.749V13.806c0-.329-.066-.58-.198-.75-.134-.17-.369-.308-.709-.414v-.511h17.235c.283 0 .5-.075.651-.226.151-.152.273-.417.367-.794h.455v5.63h-.455c-.094-.378-.216-.643-.367-.794-.152-.152-.369-.228-.651-.228h-12.104v5.167h7.851c.283 0 .5-.074.653-.223.151-.149.273-.415.369-.797h.453v5.502h-.453c-.096-.372-.218-.635-.369-.79-.153-.155-.369-.232-.653-.232h-7.851z" mask="url(#mask-6_10_)" fill-rule="evenodd" clip-rule="evenodd" fill="#002a5b"/><defs><filter id="Adobe_OpacityMaskFilter_12_" filterUnits="userSpaceOnUse" x="157.143" y="12.698" width="21.429" height="21.429"><feColorMatrix values="1 0 0 0 0 0 1 0 0 0 0 0 1 0 0 0 0 0 1 0"/></filter></defs><mask maskUnits="userSpaceOnUse" x="157.143" y="12.698" width="21.429" height="21.429" id="mask-6_11_"><g filter="url(#Adobe_OpacityMaskFilter_12_)"><path id="path-5_11_" class="st2" d="M0 65.873h200V0H0z"/></g></mask><path id="Fill-30" d="M162.342 21.852h6.607c.976 0 1.667-.032 2.069-.094.402-.063.77-.193 1.105-.392.729-.429 1.091-1.204 1.091-2.324 0-1.12-.362-1.894-1.091-2.324a2.914 2.914 0 0 0-1.097-.4c-.388-.058-1.081-.086-2.076-.086h-6.607v5.62zm0 3.531v7.113c0 .314.07.557.209.73.138.172.376.306.712.4v.501h-6.119v-.501c.345-.105.583-.24.718-.409.133-.167.2-.407.2-.721V14.347c0-.324-.067-.571-.2-.738-.135-.167-.374-.303-.718-.408v-.503h12.266c1.494 0 2.679.094 3.554.283.876.19 1.641.519 2.291.99.756.545 1.322 1.282 1.695 2.213.354.9.531 1.863.531 2.889 0 3.496-1.776 5.541-5.329 6.138l3.807 5.918c.67 1.036 1.161 1.704 1.472 2.002.311.298.692.463 1.142.495v.501h-7.084v-.501c.489-.083.732-.272.732-.566 0-.188-.225-.643-.673-1.366l-3.971-6.311h-5.235z" mask="url(#mask-6_11_)" fill-rule="evenodd" clip-rule="evenodd" fill="#002a5b"/><defs><filter id="Adobe_OpacityMaskFilter_13_" filterUnits="userSpaceOnUse" x="181.746" y="11.905" width="18.254" height="22.222"><feColorMatrix values="1 0 0 0 0 0 1 0 0 0 0 0 1 0 0 0 0 0 1 0"/></filter></defs><mask maskUnits="userSpaceOnUse" x="181.746" y="11.905" width="18.254" height="22.222" id="mask-6_12_"><g filter="url(#Adobe_OpacityMaskFilter_13_)"><path id="path-5_12_" class="st2" d="M0 65.873h200V0H0z"/></g></mask><path id="Fill-31" d="M200 14.1l-2.268 5.055-.391-.252c.009-.105.015-.188.015-.252 0-.356-.27-.74-.808-1.148-1.653-1.301-3.593-1.952-5.82-1.952-.985 0-1.853.138-2.604.409-.549.21-.991.524-1.33.943-.34.419-.509.875-.509 1.366 0 .807.432 1.357 1.295 1.651.447.147 1.402.304 2.869.471l2.186.252c1.299.157 2.351.372 3.154.645a7.038 7.038 0 0 1 2.137 1.148c.631.513 1.13 1.188 1.496 2.027.366.837.55 1.734.55 2.687 0 1.51-.432 2.851-1.295 4.023-.781 1.069-1.992 1.86-3.635 2.374-1.226.387-2.539.581-3.94.581-2.515 0-4.998-.68-7.45-2.045-.519-.273-.83-.408-.932-.408-.121 0-.312.116-.571.346l-.403-.236 2.06-5.268.404.22v.205c0 .471.199.907.599 1.304.603.609 1.536 1.134 2.799 1.574 1.261.44 2.46.66 3.592.66 1.234 0 2.288-.235 3.161-.707a3.191 3.191 0 0 0 1.156-1.043c.288-.435.431-.888.431-1.358 0-.711-.339-1.219-1.017-1.523-.473-.21-1.429-.403-2.868-.58l-2.144-.252c-1.44-.168-2.456-.328-3.05-.48a7.357 7.357 0 0 1-1.783-.732c-.844-.472-1.508-1.18-1.991-2.125-.436-.849-.654-1.826-.654-2.928 0-1.815.552-3.316 1.656-4.501 1.448-1.563 3.621-2.345 6.517-2.345 1.216 0 2.348.139 3.397.418 1.05.279 2.358.792 3.927 1.54.539.243.867.364.989.364.193 0 .422-.122.681-.364l.392.236z" mask="url(#mask-6_12_)" fill-rule="evenodd" clip-rule="evenodd" fill="#002a5b"/></g></svg>