<svg width="1440" height="1404" viewBox="0 0 1440 1404" fill="none" xmlns="http://www.w3.org/2000/svg">
<path d="M1410.77 556.706C1400.3 565.607 1388.61 572.965 1376.05 578.557C1384.76 580.561 1393.18 583.637 1401.13 587.713C1417.23 688.296 1411.32 791.176 1383.82 889.254C1356.31 987.333 1307.86 1078.28 1241.81 1155.81C1175.76 1233.34 1093.68 1295.62 1001.23 1338.35C908.785 1381.07 808.171 1403.23 706.332 1403.29C317.804 1403.29 0 1088.22 0 699.533C0 623.42 7.68879 570.989 18.3067 538.761C29.2296 504.824 50.7705 471.071 73.2266 453.309C58.7033 442.749 50.8925 432.19 48.8177 419.25C80.6103 424.194 114.966 422.546 128.147 397.216C117.346 390.196 84.2106 390.074 71.7011 396.3C77.01 372.496 108.925 339.291 135.347 339.291C120.397 332.272 111.304 313.045 111.427 295.711C127.292 307.186 165.431 307.613 184.653 299.373C170.984 293.819 162.807 283.503 155.668 268.854C165.469 272.137 175.953 272.828 186.1 270.86C196.247 268.892 205.713 264.332 213.578 257.623C202.73 250.127 194.074 239.878 188.497 227.928C182.92 215.978 180.625 202.759 181.846 189.628C173.506 198.464 168.818 210.131 168.726 222.283C156.034 213.31 152.739 178.641 156.522 156.607C151.137 164.586 146.539 173.069 142.792 181.937C119.542 100.819 171.838 54.1252 206.377 34.3492C240.916 14.5731 308.711 6.08892 366.926 29.0389C425.142 51.9889 460.412 75.7935 528.33 69.7508C523.792 65.0041 518.465 61.0803 512.586 58.1537C595.515 35.2647 675.76 66.1496 700.474 87.3295C718.048 18.6626 817.697 -14.6027 898.186 6.08892C991.427 30.0155 1064.47 106.861 1035.49 173.636C1044.53 178.653 1053.31 184.133 1061.79 190.055C1100.84 187.492 1167.6 202.629 1210.44 240.411C1202.06 239.555 1193.65 239.148 1185.23 239.19C1185.23 239.19 1230.57 260.614 1245.71 274.47C1307.4 266.901 1357.8 273.188 1384.29 290.828C1417.42 312.923 1458.61 366.453 1430.85 449.525C1428.26 442.552 1424.08 436.281 1418.64 431.213C1416.14 448.548 1407.9 474.977 1392.22 491.457C1390.73 483.828 1388.38 476.395 1385.2 469.301C1383.39 478.06 1379.82 486.36 1374.71 493.703C1369.61 501.046 1363.07 507.279 1355.49 512.027C1360.43 535.282 1377.76 552.617 1410.77 556.706Z" fill="#00205C"/>
<path d="M1210.62 714.915C1203.77 723.412 1196.5 731.561 1188.83 739.329C1190.17 763.711 1187.49 788.146 1180.9 811.659C1204.46 777.417 1215.2 740.733 1210.62 714.915Z" fill="white"/>
<path d="M1240.15 671.944C1235.45 679.94 1229.9 688.485 1223.68 697.275C1229.08 712.4 1231.17 728.514 1229.78 744.518C1239.86 721.745 1243.45 696.629 1240.15 671.944V671.944Z" fill="white"/>
<path d="M1206.23 923.418C1199.02 934.038 1191.52 944.293 1183.28 954.242C1183.28 960.956 1183.28 980.427 1182.37 987.202C1190.63 978.862 1197.02 968.865 1201.14 957.87C1205.25 946.875 1206.98 935.133 1206.23 923.418Z" fill="white"/>
<path d="M1322.53 479.189C1322.53 491.396 1329.92 513.004 1338.16 520.45C1337.17 513.579 1337.46 506.586 1339.01 499.82C1341.45 494.875 1369.52 487.612 1373.61 452.821C1362.08 462.709 1339.8 480.043 1322.53 479.189Z" fill="white"/>
<path d="M305.111 172.843C328.543 142.873 384.44 98.072 440.458 102.467C433.611 97.5624 425.974 93.8671 417.88 91.541C422.777 87.5485 428.45 84.6178 434.539 82.9347C411.615 76.2449 389.572 66.8396 368.879 54.9186C366.682 60.0457 361.556 76.1596 360.092 81.2867C344.836 51.0733 302.609 37.584 272.281 44.6644C254.022 49.1938 238.057 60.2617 227.407 75.7731C216.758 91.2845 212.163 110.163 214.493 128.835C219.808 120.218 227.773 113.558 237.193 109.852C233.803 123.611 234.289 138.041 238.597 151.541C250.313 129.628 269.108 112.782 286.194 107.655C274.478 127.431 267.887 169.852 283.265 185.966C284.177 179.447 286.48 173.201 290.017 167.651C293.555 162.101 298.245 157.377 303.768 153.799C302.632 156.888 302.164 160.182 302.396 163.465C302.627 166.748 303.553 169.944 305.111 172.843V172.843Z" fill="white"/>
<path d="M210.344 177.542C209.306 188.224 204.668 223.32 234.752 247.125C250.957 245.504 266.843 241.557 281.923 235.406C262.029 229.302 236.522 207.39 236.522 193.168C234.02 202.018 231.884 206.291 231.152 210.564C220.905 202.03 213.621 190.471 210.344 177.542Z" fill="white"/>
<path d="M469.871 157.217C506.85 123.342 583.86 106.923 632.556 142.324C645.27 133.643 658.679 126.028 672.648 119.557C653.304 93.3112 605.523 71.3378 564.15 70.7274C570.049 78.1875 574.933 86.3975 578.673 95.1423C548.162 82.0193 508.925 87.5737 488.849 97.2176C497.376 102.908 504.476 110.491 509.596 119.374C435.149 103.749 351.549 138.174 322.502 225.823C332.205 222.344 341.846 217.522 347.399 215.447C348.071 252.069 293.517 310.116 270.023 321.163C272.769 322.567 292.113 325.985 296.934 327.267C270.694 340.39 227.857 379.088 228.589 424.011C249.276 417.114 257.575 413.635 277.407 411.804C251.839 434.632 222.182 483.034 234.691 534.855C248.543 521.732 252.998 516.544 259.588 515.506C248.543 538.334 240.244 577.703 244.394 601.874C249.315 594.716 254.87 588.015 260.992 581.853C254.89 605.353 262.334 628.12 268.559 644.05C274.193 630.877 282.997 619.302 294.188 610.358C305.233 620.063 314.936 647.652 309.382 673.959C321.966 672.209 333.628 666.376 342.579 657.356C345.325 676.034 340.504 714.732 325.309 723.704C343.25 722.3 384.013 707.102 395.058 681.527C394.056 697.349 390.81 712.947 385.416 727.855C394.386 722.3 402.685 718.821 407.506 716.074C392.312 740.489 382.67 786.572 395.302 819.838C399.276 805.461 406.908 792.359 417.453 781.811C421.538 795.288 429.757 807.139 440.946 815.687C446.898 792.697 460.554 772.445 479.634 758.312C466.515 784.558 458.887 817.762 465.782 866.104C473.41 850.906 478.902 850.234 492.083 841.689C482.38 871.414 487.933 897.66 498.978 914.262C504.47 896.989 510.023 888.016 520.397 880.387C520.397 902.482 523.814 947.528 557.011 974.384C556.729 965.984 558.378 957.631 561.831 949.969C579.772 976.948 599.848 1004.6 657.209 1012.23C642.014 994.954 594.966 936.175 601.191 898.149C594.075 904.961 589.454 913.968 588.071 923.723C568.727 900.956 544.562 844.375 562.503 787.61C558.008 789.711 554.035 792.782 550.87 796.603C547.704 800.423 545.425 804.898 544.196 809.706C536.568 782.727 538.094 739.94 557.316 718.455C550.155 718.517 543.004 718.986 535.897 719.859C542.329 711.57 547.245 702.209 550.42 692.209C539.466 695.637 527.843 696.349 516.553 694.284C544.867 673.592 570.435 651.558 558.658 578.863C580.809 599.066 588.193 641.67 583.067 667.367C589.943 661.205 595.775 653.97 600.336 645.943C609.307 684.64 594.234 746.105 577.514 771.008C584.369 769.65 590.922 767.066 596.858 763.378C589.169 780.287 586.912 799.164 590.398 817.41C593.885 835.655 602.943 852.369 616.324 865.249C622.048 858.108 626.075 849.76 628.101 840.835C631.58 869.827 650.924 917.497 680.641 936.907C684.635 927.419 689.979 918.559 696.507 910.6C703.403 942.401 715.18 958.331 735.867 972.797C756.857 962.245 774.202 945.64 785.661 925.127C788.841 935.434 789.304 946.389 787.003 956.927C805.875 949.583 821.384 935.547 830.573 917.497C831.915 927.202 833.99 926.531 833.99 938.982C857.09 926.115 874.947 905.553 884.456 880.875C888.569 884.511 891.857 888.985 894.097 893.998C906.302 885.026 923.815 846.999 923.815 812.452C928.697 817.335 933.517 818.556 937.667 826.979C953.533 768.261 918.323 681.893 918.323 653.511C919.241 630.084 928.555 607.769 944.562 590.643C963.785 567.538 974.301 538.423 974.28 508.365C979.16 514.53 983.259 521.275 986.485 528.446C1001.68 509.768 1007.9 481.447 1005.83 449.097C1011.37 453.678 1015.88 459.377 1019.07 465.822C1032.19 452.638 1046.71 418.09 1041.83 366.27L1051.53 368.345C1061.91 342.099 1078.51 237.725 1008.82 183.097C1026.76 154.776 1023.28 112.355 998.445 96.0579C976.355 81.531 956.279 88.4282 952.19 102.162C948.102 115.895 952.861 127.736 962.503 131.887C973.474 136.272 985.516 137.23 997.041 134.633C992.892 146.841 964.578 157.461 940.413 146.841C911.122 134.267 901.42 115.163 904.471 87.3906C906.546 68.7132 925.89 44.6645 943.891 43.1386C918.994 21.7145 876.157 11.3382 838.14 14.1459C875.485 32.8233 880.306 69.3846 865.783 97.7669C853.029 122.67 824.715 133.169 792.922 131.46C766.622 130.056 750.207 111.561 753.136 95.2034C758.14 100.758 777.545 106.129 789.078 103.993C800.611 101.856 814.646 90.8697 812.571 77.6857C810.314 63.464 792.556 54.4915 766.317 57.6655C741.908 60.6563 716.034 83.6673 721.038 121.999C701.267 124.501 558.597 194.45 590.817 342.404C583.748 339.453 577.017 335.749 570.74 331.357C567.323 346.555 574.219 385.252 584.593 400.817C579.083 401.529 573.504 401.529 567.995 400.817C566.058 421.117 566.058 441.555 567.995 461.854C532.785 385.802 533.09 272.15 574.097 219.964C555.434 224.916 535.719 224.194 517.468 217.888C521.557 216.484 529.673 212.334 532.663 210.991C524.373 198.012 521.544 182.283 524.791 167.227C515.088 165.152 498.551 169.303 495.073 174.857C496.699 166.541 500.252 158.723 505.447 152.029C493.337 150.491 481.037 152.284 469.871 157.217V157.217Z" fill="white"/>
<path d="M550.542 142.751C565.332 148.347 578.678 157.191 589.596 168.631C594.417 166.556 602.716 162.039 610.039 158.804C612.026 165.071 612.291 171.758 610.804 178.162C609.317 184.567 606.134 190.452 601.589 195.202C597.044 199.952 591.304 203.39 584.972 205.155C578.641 206.921 571.95 206.949 565.604 205.237C559.258 203.525 553.489 200.135 548.904 195.424C544.319 190.713 541.087 184.854 539.546 178.462C538.006 172.071 538.214 165.382 540.148 159.099C542.083 152.815 545.673 147.168 550.542 142.751V142.751Z" fill="white"/>
<path d="M1081.98 281.184C1088.41 284.666 1094.19 289.229 1099.07 294.673C1111.72 288.965 1125.67 286.752 1139.47 288.264C1140.5 291.774 1141.06 295.408 1141.11 299.068C1141.11 318.721 1128.91 334.713 1110.6 334.713C1101.48 334.363 1092.88 330.418 1086.66 323.739C1080.44 317.06 1077.11 308.19 1077.41 299.068C1077.41 292.816 1078.98 286.666 1081.98 281.184Z" fill="white"/>
<path d="M421.602 923.967C417.374 932.344 414.099 941.168 411.839 950.274C404.121 937.737 398.552 923.997 395.363 909.624C378.561 899.98 362.818 889.949 348.132 879.532C349.044 906.802 355.523 933.597 367.171 958.27C369.982 951.828 373.118 945.533 376.568 939.41C387.552 959.064 426.789 989.643 455.897 996.663C442.286 973.521 430.807 949.189 421.602 923.967V923.967Z" fill="white"/>
<path d="M333.547 868.912C305.602 847.925 280.08 823.891 257.453 797.254C245.521 827.512 243.387 860.753 251.35 892.289C252.898 882.587 257.493 873.63 264.47 866.714C266.85 905.9 285.645 938.799 314.63 956.866C311.7 941.022 311.969 924.751 315.424 909.013C320.916 921.587 328.788 923.906 334.28 928.606C329.76 908.991 329.51 888.632 333.547 868.912Z" fill="white"/>
<path d="M250.191 788.221C226.952 759.371 208.416 727.029 195.271 692.392C179.832 714.121 163.356 766.003 169.642 804.457C173.318 788.649 181.475 774.238 193.135 762.951C187.643 783.338 189.23 815.443 193.135 835.097C198.627 810.011 208.818 804.579 213.517 797.437C212.723 827.956 216.69 847.61 226.881 862.503C226.881 830.092 240.366 798.658 250.191 788.221Z" fill="white"/>
<path d="M186.606 665.291C183.394 653.457 180.948 641.428 179.283 629.279C168.055 640.327 147.674 683.419 154.874 724.192C158.658 698.557 173.791 674.813 186.606 665.291Z" fill="white"/>
<path d="M176.964 603.644C173.486 585.332 177.636 564.58 181.175 546.024C160.916 563.725 135.042 623.298 137.422 657.784C146.087 635.078 167.14 608.282 176.964 603.644Z" fill="white"/>
<path d="M61.4493 757.396C71.64 876.602 124.912 973.835 248.787 1056.11C229.199 1025.59 212.174 945.574 216.69 917.375C205.706 922.014 199.42 933.794 196.308 944.781C184.484 926.425 179.474 904.5 182.151 882.828C174.951 891.307 168.653 900.512 163.356 910.295C153.166 893.815 150.054 859.329 153.166 846.755C145.456 855.307 139.819 865.52 136.69 876.602C125.706 852.187 123.387 816.969 127.292 772.839C115.414 784.84 104.402 797.67 94.3403 811.231C79.7783 795.75 68.5795 777.42 61.4493 757.396V757.396Z" fill="white"/>
<path d="M574.89 1143.21C558.597 1138.57 542.609 1131.92 534.92 1129.05C536.507 1148.65 553.227 1185.51 580.382 1199.67C574.158 1180.02 574.158 1168.3 574.89 1143.21Z" fill="white"/>
<path d="M602.35 1149.44C606.237 1162.14 614.246 1173.18 625.111 1180.81C620.412 1172.21 621.938 1159.63 624.318 1150.29C616.984 1150.63 609.636 1150.34 602.35 1149.44V1149.44Z" fill="white"/>
<path d="M535.714 1221.58C494.28 1190.21 460.473 1155.73 451.076 1113.37C443.977 1122.89 440.127 1134.45 440.092 1146.33C416.537 1128.01 404.821 1087.49 407.14 1070.27C397.966 1080.43 391.741 1092.91 389.138 1106.35C374.249 1092.98 367.964 1069.72 369.55 1049.09C360.649 1059.48 354.371 1071.85 351.244 1085.17C332.449 1074.97 318.353 1048.54 310.481 1018.03C304.626 1036.26 302.751 1055.53 304.982 1074.55C307.214 1093.56 313.501 1111.88 323.418 1128.26C328.267 1120.26 333.756 1112.67 339.832 1105.55C341.699 1134.27 353.981 1161.31 374.371 1181.61C374.371 1166.71 380.473 1142.42 384.562 1136.93C394.752 1169.83 407.262 1183.19 426.118 1194.91C426.118 1182.4 427.643 1171.41 432.22 1165.92C443.575 1182.98 458.956 1196.99 477.006 1206.7C495.057 1216.41 515.219 1221.52 535.714 1221.58V1221.58Z" fill="white"/>
<path d="M1060.26 217.461C1063.01 233.087 1079.54 255.243 1082.35 262.629C1109.99 258.906 1162.47 262.629 1178.16 284.724L1162.47 292.11L1173.52 305.172L1157.9 302.425C1154.17 318.051 1148.68 341.123 1122.87 341.123L1126.53 352.17C1109.08 351.255 1098.89 356.748 1086.93 345.7C1079.65 380.089 1065.56 412.672 1045.49 441.529C1074.05 436.951 1108.16 420.349 1112.62 404.907L1115.36 429.749C1131.96 418.701 1156.86 380.919 1157.77 368.04C1158.69 403.991 1154.05 439.881 1137.51 469.362C1130.13 466.615 1126.41 459.23 1121.83 453.736C1118.11 462.953 1109.63 492.434 1102.49 502.566C1098.2 493.707 1092.94 485.354 1086.81 477.663C1078.04 498.467 1067.3 518.376 1054.71 537.113C1051.96 526.005 1049.15 519.596 1047.32 511.295C1031.64 574.895 992.953 627.265 957.011 647.652C1000.34 643.99 1068.5 614.509 1084.18 551.823C1087.79 559.928 1089.36 568.791 1088.76 577.642C1110.91 561.04 1130.25 532.474 1143.13 502.078C1148.78 507.513 1153.17 514.116 1156 521.427C1173.52 503.116 1201.16 455.995 1203.97 432.007C1221.42 459.657 1226.06 511.356 1219.59 536.137C1215.01 531.559 1207.38 526.005 1203.97 522.342C1201.16 544.438 1197.5 586.859 1182.73 606.208C1179.07 601.569 1172.6 594 1167.11 587.896C1162.47 610.907 1144.04 640.388 1130.5 656.991C1127.69 647.774 1124.94 644.783 1116.64 633.979C1111.47 655.241 1102.77 675.481 1090.89 693.857C1088.09 680.978 1088.09 684.64 1078.69 670.846C1073.2 718.699 1029.87 781.384 990.268 791.517C1047.38 793.348 1111.89 765.698 1141.36 698.435V718.699C1160.7 709.483 1192.01 673.593 1193.84 664.376C1192.01 673.593 1197.56 686.472 1195.73 691.11C1221.35 663.718 1237.5 628.822 1241.8 591.559C1246.38 596.197 1252.85 599.86 1255.59 606.33C1269.26 567.632 1272.13 501.284 1248.15 477.297C1255.95 476.384 1263.86 477.346 1271.21 480.105C1268.69 472.345 1264.24 465.352 1258.28 459.779L1275.79 453.675C1228.8 437.073 1216.84 393.798 1228.8 352.293L1258.28 367.064C1236.19 300.716 1173.52 241.754 1130.13 235.284C1136.1 229.565 1143.37 225.376 1151.31 223.077C1118.23 210.991 1083.27 210.076 1060.26 217.461Z" fill="white"/>
<path d="M1099.01 803.053C1112.84 803.3 1126.67 802.525 1140.38 800.733C1138.55 820.082 1138.55 841.262 1127.45 861.77C1149.47 843.459 1173.27 782.422 1176.26 751.903C1153.09 772.566 1127.08 789.792 1099.01 803.053V803.053Z" fill="white"/>
<path d="M1162.53 976.887C1154.78 984.944 1146.55 990.132 1138.12 997.517C1138.8 1017.48 1138.07 1037.47 1135.93 1057.33C1154.91 1038.29 1161.44 997.09 1162.53 976.887Z" fill="white"/>
<path d="M1109.81 1022.42C1080.17 1044.33 1047.61 1061.99 1013.09 1074.91C1006.07 1099.33 991.244 1151.76 978.918 1166.47C1008.03 1150.78 1023.22 1121.85 1038.9 1098.29C1038.9 1107.26 1042.26 1119.59 1041.16 1126.31C1060.2 1116.23 1075.88 1092.67 1081.5 1075.89C1085.95 1081.44 1091.56 1091.51 1090.47 1094.93C1100.53 1071.87 1107.05 1047.43 1109.81 1022.42V1022.42Z" fill="white"/>
<path d="M981.42 1084.56C949.242 1093.33 915.971 1097.45 882.625 1096.76C898.307 1102.38 924.608 1112.69 935.775 1116.11C927.964 1134.06 922.35 1154.2 911.366 1165.43C943.647 1150.84 970.253 1112.57 981.42 1084.56Z" fill="white"/>
<path d="M820.687 1002.52V981.342C788.468 1013.63 732.266 1032 693.578 1032.98C746.973 1052.33 817.026 1051.29 870.542 1020.04C867.796 1029.26 865.966 1043.05 860.413 1052.33C903.738 1040.12 948.895 1008.08 969.154 976.764C971.9 984.089 977.453 992.39 978.369 1002.52C993.075 986.896 1003.2 953.692 1004.12 928.85C1009.34 935.972 1013.68 943.698 1017.06 951.861C1024.44 916.887 1014.31 849.563 992.16 817.579C991.244 841.506 982.945 907.853 953.472 941.057C953.682 929.217 952.14 917.411 948.895 906.022C947.003 918.962 920.336 960.406 907.4 972.37C909.368 959.477 908.745 946.321 905.569 933.672C885.246 965.005 855.535 989.104 820.687 1002.52V1002.52Z" fill="white"/>
<path d="M1254.07 289.485C1261.51 296.931 1297.76 349.729 1305.2 369.505C1319.24 375.608 1347.25 370.359 1360.43 353.025C1363.72 365.232 1357.13 395.079 1347.25 400.023L1360.43 399.23C1352.19 412.414 1343.1 422.302 1322.53 424.743C1324.08 431.541 1325.18 438.433 1325.83 445.374C1340.66 441.285 1374.65 428.894 1374.65 399.23C1379.82 404.92 1383.02 412.139 1383.74 419.799C1393.62 406.615 1406.81 382.689 1393.62 360.471L1408.27 372.312C1417.36 354.978 1400.03 319.515 1367.02 307.125C1334.01 294.734 1302.95 297.237 1283.78 297.237C1273.42 296.912 1263.27 294.263 1254.07 289.485V289.485Z" fill="white"/>
<path d="M563.601 171.5L571.595 180.656L581.114 172.599C582.415 174.356 583.187 176.448 583.339 178.628C583.492 180.809 583.018 182.988 581.974 184.909C580.93 186.83 579.359 188.412 577.446 189.47C575.533 190.528 573.358 191.017 571.177 190.88C568.995 190.743 566.899 189.986 565.133 188.698C563.367 187.409 562.006 185.643 561.21 183.607C560.415 181.57 560.217 179.349 560.64 177.204C561.064 175.06 562.091 173.081 563.601 171.5V171.5Z" fill="#334475"/>
<path d="M1100.96 302.608L1108.96 311.764L1118.54 303.707C1119.95 305.684 1120.72 308.051 1120.73 310.482C1120.74 312.359 1120.29 314.211 1119.41 315.872C1118.54 317.534 1117.27 318.956 1115.72 320.014C1114.17 321.071 1112.38 321.731 1110.52 321.937C1108.65 322.142 1106.76 321.886 1105.02 321.191C1103.27 320.497 1101.73 319.385 1100.51 317.953C1099.3 316.521 1098.45 314.812 1098.05 312.978C1097.65 311.143 1097.71 309.238 1098.22 307.43C1098.72 305.622 1099.67 303.966 1100.96 302.608V302.608Z" fill="#334475"/>
<path d="M477.438 228.57C459.07 193.29 435.088 176.993 390.542 184.135L403.296 193.413C398.942 193.306 394.667 194.589 391.091 197.075C397.923 202.21 402.531 209.767 403.967 218.194C398.907 219.712 393.619 220.332 388.345 220.025C393.269 225.555 396.766 232.206 398.532 239.397C400.297 246.589 400.278 254.104 398.475 261.286C393.837 276.85 365.462 303.463 349.657 326.413C324.76 363.035 312.006 409.484 313.044 438.294C317.473 429.723 323.721 422.224 331.35 416.321C325.859 441.956 333.486 482.241 344.47 495.669C347.741 487.912 351.963 480.593 357.041 473.879C350.939 505.923 355.576 541.691 373.517 566.533C375.774 557.787 379.465 549.475 384.44 541.935C383.524 575.872 393.349 610.968 408.299 631.843C411.059 625.119 414.429 618.663 418.368 612.555C420.87 639.778 443.143 681.344 479.817 691.416C448.025 660.897 444.303 608.893 455.042 582.281C449.529 583.006 444.229 584.877 439.482 587.774C435.785 574.354 434.545 560.375 435.82 546.513C429.929 551.65 424.938 557.736 421.053 564.519C408.238 534 414.097 466.859 427.766 441.041C422.515 441.745 417.458 443.49 412.889 446.173C408.321 448.856 404.334 452.423 401.16 456.666C401.77 436.646 413.364 407.043 424.959 396.117C412.022 396.117 396.4 405.822 385.721 415.649C385.721 397.338 391.091 369.2 398.414 357.603C384.623 360.349 378.46 368.162 372.968 369.81C370.954 334.225 390.542 261.896 477.438 228.57Z" fill="#00205C"/>
<path d="M511.427 269.648C485.553 281.428 453.395 333.981 447.171 377.074C454.298 372.408 462.286 369.212 470.664 367.674C458.887 384.154 454.981 409.24 454.188 421.753C460.172 418.307 466.465 415.426 472.983 413.147C466.881 426.514 454.676 467.287 463.586 497.866C472.251 472.78 482.441 468.019 491.839 459.413C494.158 483.828 485.737 522.159 473.532 533.939C491.839 531.559 503.311 526.859 507.277 516.666C503.311 533.939 499.406 560.552 490.008 568.425C507.277 565.251 508.803 565.251 517.468 557.439C516.675 574.712 513.563 603.705 505.691 613.898C524.486 602.911 553.532 566.838 549.566 544.133L569.215 551.152C506.484 463.869 480.061 367.674 511.427 269.648Z" fill="#00205C"/>
<path d="M878.72 578.13C877.301 582.973 877.301 588.12 878.72 592.962C932.602 690.622 898.796 819.655 871.824 859.024C840.764 855.545 758.506 867.325 736.416 875.626C717.072 851.211 641.77 801.649 619.619 794.08C628.59 756.054 640.001 656.746 634.814 609.565C629.615 572.801 612.934 538.621 587.156 511.905C586.094 511.132 585.272 510.074 584.786 508.853C584.3 507.633 584.17 506.299 584.41 505.008C596.126 496.035 669.841 417.908 661.786 289.363C653.535 294.186 646.269 300.523 640.367 308.04C639.795 291.9 642.861 275.837 649.337 261.042C641.302 268.528 634.119 276.88 627.918 285.945C634.814 212.7 690.1 157.4 743.861 154.593C733.123 167.929 724.084 182.547 716.95 198.112C723.845 191.215 743.861 187.797 759.055 187.065C748.681 191.948 732.816 215.447 729.337 232.72C737.567 224.889 748.489 220.519 759.848 220.513C754.022 225.034 749.267 230.787 745.923 237.361C742.578 243.935 740.728 251.167 740.504 258.539C806.774 241.266 916.675 264.643 951.946 295.833C950.543 282.039 951.946 263.361 933.945 253.107C945.833 250.464 958.265 251.927 969.216 257.257C964.593 245.432 958.035 234.458 949.81 224.786C962.015 223.382 981.603 226.189 991.305 235.162C987.156 222.039 980.932 209.587 971.229 204.643C1003.02 212.883 1037.56 240.533 1035.55 313.839C1031.03 309.303 1025.31 306.149 1019.07 304.744C1023.89 324.826 1019.74 344.175 1006.87 366.941C1004.12 359.373 995.15 349.668 993.014 345.517C988.193 451.966 923.937 522.525 887.324 564.641C883.535 568.479 880.602 573.076 878.72 578.13V578.13Z" fill="#00205C"/>
<path d="M688.94 520.633C723.967 515.078 780.474 556.096 777.85 606.756C786.149 593.633 786.82 558.415 784.745 545.719C803.418 545.048 829.658 547.794 837.957 554.02C847.354 561.04 841.435 587.163 844.059 599.615C846.683 612.067 875.18 672.188 864.806 712.29C859.314 733.409 835.028 770.641 797.682 766.186C757.651 761.303 733.426 746.837 727.934 727.488C722.442 708.139 723.784 681.161 713.41 666.451C700.352 648.14 663.006 622.26 658.857 604.254C654.707 586.248 667.827 549.687 668.498 542.789C668.471 539.111 667.656 535.48 666.109 532.143C664.562 528.805 662.318 525.838 659.528 523.441C669.374 523.014 679.191 522.077 688.94 520.633Z" fill="#E31937"/>
<path d="M715.973 771.863C712.306 758.796 710.256 745.328 709.871 731.761C702.839 736.968 696.412 742.946 690.71 749.584C686.683 734.935 685.828 678.354 688.452 661.446C667.094 687.692 647.262 746.593 644.76 764.843C642.503 780.896 647.933 789.869 655.073 794.324C662.213 798.78 727.689 814.406 755.393 838.088C787.742 831.649 820.839 829.82 853.7 832.656C868.345 834.304 875.058 822.279 879.085 808.241C881.038 801.588 893.365 737.804 892.449 709.727C885.798 726.207 867.064 765.393 857.728 775.647C855.609 768.669 853.082 761.821 850.161 755.138L825.203 789.93L814.524 778.76L802.319 790.357L792.068 775.647L772.968 787.366L762.289 771.313L743.128 778.882L736.416 763.256L715.973 771.863Z" fill="white"/>
<path d="M743.982 346.921C711.287 377.077 689.92 417.537 683.448 461.549C651.778 398.986 671.244 319.271 722.625 277.827C736.563 289.404 752.811 297.873 770.283 302.669C782.487 304.744 824.898 285.395 858.094 292.354C898.429 300.716 910.329 320.675 925.767 326.901C939.419 331.119 953.646 333.179 967.934 333.004C977.575 372.373 952.068 449.769 906.423 488.466C918.44 454.836 922.919 418.975 919.543 383.421C910.424 392.532 900.169 400.43 889.032 406.92C887.69 395.201 888.361 367.551 888.361 367.551L871.092 377.195L862.121 359.25L846.195 368.894L836.553 354.367L824.349 364.072L814.646 346.127L799.391 361.448L781.084 346.249C770.947 357.306 761.914 369.327 754.112 382.139C748.205 371.28 744.748 359.259 743.982 346.921V346.921Z" fill="white"/>
<path d="M831.732 188.773C845.476 205.964 854.649 226.352 858.399 248.041C889.825 199.211 958.414 171.927 996.553 169.364C978.247 165.457 944.257 169.364 930.588 171.439C920.589 167.799 911.298 162.45 903.128 155.63C900.438 165.108 898.78 174.849 898.185 184.684C889.013 188.441 880.139 192.889 871.641 197.99C880.037 166.927 883.395 134.717 881.587 102.589C879.006 112.044 874.46 120.849 868.247 128.428C862.033 136.006 854.291 142.189 845.527 146.573C836.762 150.956 827.172 153.441 817.382 153.866C807.592 154.291 797.823 152.646 788.712 149.038C799.49 155.576 809.135 163.821 817.27 173.453C830.617 173.715 843.867 171.135 856.141 165.885C853.877 171.181 850.539 175.951 846.338 179.891C842.136 183.83 837.163 186.855 831.732 188.773Z" fill="#00205C"/>
</svg>
