<svg version="1.1" id="Layer_1" xmlns="http://www.w3.org/2000/svg" x="0" y="0" viewBox="0 0 200 200" xml:space="preserve"><style>.st1{fill:#095540}.st2{fill:#8c734b}</style><path d="M.038 91.114s-.514 32.615 37.304 49.899l-30.37 40.244c55.214 10.901 95.068 7.042 121.981-.278 76.298-23.078 70.967-72.669 70.967-72.669-1.244-40.33-48.512-55.192-48.512-55.192l27.715-36.366c-38.723-6.853-69.42-5.537-92.749-1.139 0 0-88.457 14.553-86.336 75.501z" fill="#fff"/><path class="st1" d="M167.729 23.256 147.54 48.73c-34.476.039-44.47 12.018-44.47 12.018-9.184 9.875.549 21.118 1.628 22.495-49.254-33.729 5.471-48.389 11.04-50.175.001-.001 18.061-5.152 51.991-9.812z"/><path class="st1" d="M152.982 150.977c11.288-28.563-29.831-49.879-38.355-55.492-8.306-5.469-42.971-23.514-41.21-40.667 3.237-31.5 93.847-35.227 93.847-35.227-39.987-5.712-120.167-4.85-122.319 37.406-1.226 23.257 31.896 41.583 39.315 46.389 10.488 6.781 45.414 24.971 41.994 42.49-3.046 15.59-25.353 18.721-25.353 18.721s22.95-12.393 12.457-30.245c-.316.435-2.409 23.807-56.994 15.957l2.365-28.702-42.65 56.017c-.001 0 118.086 20.963 136.903-26.647z"/><path class="st2" d="M170.904 72.199c-.235 17.48-18.853 27.434-41.049 25.339 2.15 1.025 13.921 6.876 24.17 16.372 14.638-3.112 24.013-21.014 16.879-41.711z"/><path class="st1" d="M174.572 70.746c12.478 32.217-2.758 48.114-13.875 50.247 12.528 15.178 8.749 28.787 8.213 30.889 37.108-27.034 28.791-65.078 5.662-81.136z"/><path class="st2" d="M28.941 126.62c.234-17.482 18.853-27.437 41.05-25.341-2.152-1.028-13.923-6.878-24.172-16.367-14.638 3.11-24.013 21.007-16.878 41.708z"/><path class="st1" d="M25.274 128.073c-12.483-32.22 2.756-48.112 13.873-50.246-12.525-15.177-8.749-28.786-8.212-30.89-37.108 27.036-28.789 65.078-5.661 81.136z"/></svg>